<?xml version="1.0" encoding="utf-8"?><svg xmlns="http://www.w3.org/2000/svg" xmlns:xlink="http://www.w3.org/1999/xlink"><symbol viewBox="0 0 18 22" id="apple" xmlns="http://www.w3.org/2000/svg"><path d="M.939 8.088c-1.86 3.227-.678 8.125 1.379 11.095C3.344 20.668 4.384 22 5.808 22l.08-.001c.67-.027 1.153-.233 1.62-.432.525-.224 1.068-.455 1.919-.455.81 0 1.326.224 1.826.44.492.213 1 .434 1.75.42 1.603-.03 2.588-1.468 3.456-2.737a12.13 12.13 0 001.515-3.102l.006-.02a.18.18 0 00-.109-.227c-.282-.115-2.76-1.214-2.785-4.21-.025-2.433 1.858-3.721 2.235-3.955l.018-.01a.18.18 0 00.051-.254c-1.3-1.902-3.29-2.188-4.093-2.223a3.609 3.609 0 00-.357-.017c-.941 0-1.843.355-2.568.641-.5.198-.933.368-1.23.368-.336 0-.77-.173-1.273-.372-.673-.267-1.436-.57-2.244-.57h-.057c-1.877.028-3.651 1.102-4.63 2.804z"/><path d="M13.3 0c-1.138.046-2.502.746-3.317 1.701-.693.803-1.37 2.141-1.191 3.49a.18.18 0 00.164.156c.077.006.155.009.233.009 1.112 0 2.312-.615 3.13-1.605.863-1.046 1.298-2.388 1.167-3.59a.181.181 0 00-.187-.16z"/></symbol><symbol viewBox="0 0 20 20" id="basket" xmlns="http://www.w3.org/2000/svg"><path d="M19.855 4.986a.773.773 0 00-.564-.377L3.394 2.789 1.36.287C1.064-.078.566-.097.249.245a1.007 1.007 0 00-.036 1.281l2.022 2.49v11.663c0 1.114.727 2.035 1.663 2.17-.076.192-.12.406-.12.631 0 .84.59 1.52 1.318 1.52.728 0 1.318-.68 1.318-1.52 0-.218-.04-.425-.112-.613h7.421a1.713 1.713 0 00-.112.613c0 .84.59 1.52 1.318 1.52.729 0 1.319-.68 1.319-1.52 0-.218-.041-.425-.113-.613h.682c.435 0 .787-.405.787-.906s-.352-.907-.787-.907H4.134c-.18 0-.325-.168-.325-.375V14.65h13.674c.363 0 .679-.286.764-.693l1.73-8.233a1.02 1.02 0 00-.122-.738z"/></symbol><symbol viewBox="0 0 17 18" id="basket-two" xmlns="http://www.w3.org/2000/svg"><path d="M4.805 14.4c-.88 0-1.6.81-1.6 1.8s.72 1.8 1.6 1.8c.88 0 1.6-.81 1.6-1.8s-.72-1.8-1.6-1.8zM.005 0v1.8h1.6l2.88 6.84-1.12 2.16c-.08.27-.16.63-.16.9 0 .99.72 1.8 1.6 1.8h9.6v-1.8h-9.28c-.08 0-.16-.09-.16-.18v-.09l.72-1.53h5.92c.64 0 1.12-.36 1.36-.9l2.88-5.85c.16-.18.16-.27.16-.45 0-.54-.32-.9-.8-.9H3.365L2.645 0H.005zm12.8 14.4c-.88 0-1.6.81-1.6 1.8s.72 1.8 1.6 1.8c.88 0 1.6-.81 1.6-1.8s-.72-1.8-1.6-1.8z"/><defs><linearGradient id="acpaint0_linear" x1=".005" y1="9" x2="16.005" y2="9" gradientUnits="userSpaceOnUse"><stop stop-color="#4E20B1"/><stop offset="1" stop-color="#8D0ACB"/></linearGradient></defs></symbol><symbol viewBox="0 0 8 8" id="burger" xmlns="http://www.w3.org/2000/svg"><rect width="8" height="1" rx=".5"/><rect y="3" width="8" height="2" rx="1"/><rect y="7" width="8" height="1" rx=".5"/></symbol><symbol viewBox="0 0 30 30" id="chain" xmlns="http://www.w3.org/2000/svg"><path d="M25.868 21.905a4.26 4.26 0 00-.428.022l-1.632-5.133a5.907 5.907 0 001.694-1.16 5.68 5.68 0 001.722-4.068c0-3.175-2.637-5.758-5.878-5.758-1.62 0-3.088.645-4.153 1.687a5.682 5.682 0 00-1.725 4.071c0 .708.132 1.387.371 2.014l-2.889 1.576a7.046 7.046 0 00-5.036-3.143V9.921a5.132 5.132 0 002.707-1.362 4.932 4.932 0 001.527-3.562C12.148 2.242 9.86 0 7.046 0 5.624 0 4.336.573 3.41 1.496a4.93 4.93 0 00-1.465 3.501c0 2.428 1.776 4.456 4.122 4.904v2.12a7.061 7.061 0 00-4.001 1.947A6.784 6.784 0 000 18.836c0 3.792 3.15 6.878 7.021 6.878a7.07 7.07 0 004.969-2.024 6.785 6.785 0 002.052-4.854c0-.708-.11-1.39-.313-2.034l3.023-1.649a5.915 5.915 0 005.277 2.132l1.663 5.23a4.14 4.14 0 00-.702.537 3.999 3.999 0 00-1.253 2.9c0 2.232 1.853 4.048 4.131 4.048 1.16 0 2.21-.471 2.962-1.227a3.991 3.991 0 001.17-2.82c0-2.232-1.854-4.048-4.132-4.048z"/></symbol><symbol viewBox="0 0 24 30" id="chair" xmlns="http://www.w3.org/2000/svg"><path d="M22.92 27.416v-.647a.714.714 0 00-.407-.645c-.158-.076-3.815-1.783-9.8-1.913v-2.44a1.42 1.42 0 00.715-1.23v-.789h5.079a1.429 1.429 0 001.385-1.773c1.247-.411 1.902-.784 1.96-.82a.713.713 0 00.353-.616v-3.906h.677a.714.714 0 100-1.428H20.1a.714.714 0 000 1.428h.678v3.465c-.35.161-.96.412-1.819.666l-.483-.484a1.43 1.43 0 00-1.25-.399c-.015.003-1.44.237-3.798.311v-1.248c2.6-.161 3.923-.723 4.086-.797.559-.253.893-.834.832-1.444L17.25 1.833a1.43 1.43 0 00-.866-1.174C16.225.592 14.74 0 12 0S7.775.592 7.614.66a1.427 1.427 0 00-.866 1.173L5.653 12.709c-.062.61.273 1.192.832 1.445.163.073 1.486.635 4.086.797v1.248c-2.358-.074-3.782-.307-3.797-.311-.46-.079-.922.07-1.25.399l-.484.483a13.59 13.59 0 01-1.818-.665V12.64H3.9a.714.714 0 100-1.428H1.117a.714.714 0 100 1.428h.677v3.907c0 .252.134.488.353.617.06.035.718.412 1.979.825a1.41 1.41 0 00.06.885 1.43 1.43 0 001.32.882h5.066v.788c0 .528.288.983.714 1.231v2.44c-5.985.129-9.641 1.836-9.8 1.912a.717.717 0 00-.406.644v.65A1.387 1.387 0 001.794 30c.77 0 1.392-.623 1.392-1.392 0-.507-.273-.946-.677-1.189v-.175c1.072-.426 4.216-1.5 8.777-1.604v1.78A1.387 1.387 0 0012 30c.769 0 1.392-.623 1.392-1.392 0-.507-.273-.946-.678-1.189V25.64c4.543.106 7.7 1.18 8.777 1.604v.175a1.386 1.386 0 00-.678 1.19 1.392 1.392 0 102.106-1.193zM9.718 4.126c.032-.014.81-.335 2.281-.335s2.249.321 2.281.335a.358.358 0 11-.278.658c-.005-.003-.692-.28-2.003-.28-1.312 0-1.999.277-2.006.28a.357.357 0 01-.275-.658z"/></symbol><symbol viewBox="0 0 477.867 477.867" id="clock" xmlns="http://www.w3.org/2000/svg"><path d="M238.933 0C106.974 0 0 106.974 0 238.933s106.974 238.933 238.933 238.933 238.933-106.974 238.933-238.933C477.726 107.033 370.834.141 238.933 0zM256 238.933c0 9.426-7.641 17.067-17.067 17.067H102.4c-9.426 0-17.067-7.641-17.067-17.067s7.641-17.067 17.067-17.067h119.467V102.4c0-9.426 7.641-17.067 17.067-17.067S256 92.974 256 102.4v136.533z"/></symbol><symbol viewBox="0 0 17 17" id="compare" xmlns="http://www.w3.org/2000/svg"><circle cx="12.5" cy="4.167" r="4.167"/><path fill-rule="evenodd" clip-rule="evenodd" d="M15 9.439a5.833 5.833 0 01-7.772-7.772H2a2 2 0 00-2 2v11a2 2 0 002 2h11a2 2 0 002-2V9.439z"/></symbol><symbol viewBox="0 0 15 14" id="compare-link" xmlns="http://www.w3.org/2000/svg"><path d="M0 0h3v14H0zm4 5h3v9H4zm4 3h3v6H8zm4-5h3v11h-3z"/></symbol><symbol viewBox="0 0 30 30" id="computer" xmlns="http://www.w3.org/2000/svg"><path d="M15.025 21.206a1.313 1.313 0 000-2.623 1.312 1.312 0 000 2.623zM5.508 5.276h19.034v1.761H5.508v-1.76z"/><path d="M5.508 12.313V30h19.034V12.313H5.508zm9.517 4.512a3.073 3.073 0 013.07 3.069 3.073 3.073 0 01-3.07 3.07 3.072 3.072 0 01-3.069-3.07 3.072 3.072 0 013.07-3.069zm-6 7.899h12v1.758h-12v-1.758zM5.508 8.795h19.034v1.76H5.508v-1.76zm0-8.795h19.034v3.519H5.508V0z"/></symbol><symbol viewBox="0 0 12 8" id="down" xmlns="http://www.w3.org/2000/svg"><path d="M.824 1.118L6 6.294l5.177-5.176"/></symbol><symbol viewBox="0 0 10 12" id="download" xmlns="http://www.w3.org/2000/svg"><path d="M9.941 4.235H7.117V0H2.882v4.235H.06L5 9.176l4.942-4.94zM.059 10.588V12H9.94v-1.412H.059z"/></symbol><symbol viewBox="0 0 10 20" id="facebook" xmlns="http://www.w3.org/2000/svg"><path d="M9.313.704c-6.4 0-6.92.608-6.92 6.304h-2v3.312h2v9.6h3.92v-9.6h2.616l.384-3.312h-2.92V5.32c0-.928.304-1.312 1.464-1.312h1.456V.704z"/></symbol><symbol viewBox="0 0 30 30" id="fasten" xmlns="http://www.w3.org/2000/svg"><path d="M8.317 19.041l-7.624 9.32a.674.674 0 00.946.947l9.322-7.625a32.315 32.315 0 01-2.644-2.642zM26.244 3.756c-2.607-2.608-5.552-3.888-6.58-2.862-.054.053-5.436 7.394-8.133 11.073-1.768-1.26-3.353-1.997-4.375-1.996-.373 0-.673.097-.877.303-1.125 1.123.975 5.044 4.69 8.758 3.034 3.034 6.208 4.993 7.88 4.993.373 0 .671-.098.877-.303.766-.767.032-2.837-1.691-5.254 3.68-2.698 11.018-8.08 11.07-8.132 1.027-1.026-.254-3.972-2.861-6.58z"/></symbol><symbol viewBox="0 0 30 18" id="gamepad" xmlns="http://www.w3.org/2000/svg"><path d="M29.908 14.602L27.977 3.665C27.462.747 24.827-.65 22.123.56l-2.206.986c-2.706 1.21-7.13 1.21-9.835 0L7.877.56C5.17-.65 2.537.747 2.022 3.665L.092 14.602c-.514 2.918 1.173 4.108 3.751 2.65l.133-.075c2.578-1.46 7.11-2.655 10.073-2.655h1.9c2.963 0 7.497 1.194 10.075 2.655l.132.075c2.58 1.461 4.267.268 3.752-2.65zm-20.28-4.517H8.544v1.085c0 .794-.488 1.446-1.084 1.446-.597 0-1.084-.651-1.084-1.446v-1.085H5.292c-.795 0-1.446-.49-1.446-1.085 0-.596.65-1.085 1.446-1.085h1.084V6.83c0-.794.488-1.446 1.084-1.446.595 0 1.084.65 1.084 1.446v1.085h1.084c.796 0 1.446.489 1.446 1.085s-.653 1.085-1.446 1.085zm10.39.005a1.092 1.092 0 11.002-2.185 1.092 1.092 0 01-.001 2.185zm2.524 2.523a1.09 1.09 0 110-2.182 1.09 1.09 0 110 2.182zm0-5.045a1.09 1.09 0 111.092-1.091c0 .603-.489 1.091-1.092 1.091zm2.522 2.522a1.092 1.092 0 11.002-2.185 1.092 1.092 0 01-.002 2.185z"/></symbol><symbol viewBox="0 0 26 16" id="google-plus" xmlns="http://www.w3.org/2000/svg"><path d="M.712 8.176a7.808 7.808 0 0112.944-5.84 36.245 36.245 0 01-1.968 2.032c-1.36-.8-3-1.456-4.592-.896a4.904 4.904 0 103.304 9.232 4.29 4.29 0 002.52-2.944c-1.48 0-2.968 0-4.448-.048V7.064h7.425a8.8 8.8 0 01-1.6 6.208c-1.92 2.48-5.48 3.2-8.369 2.232A7.769 7.769 0 01.688 8.16l.024.016zm20-3.336h2.2v2.216h2.216V9.28h-2.215v2.216h-2.2V9.28h-2.216V7.072h2.215V4.84z"/></symbol><symbol viewBox="0 0 17 16" id="heart" xmlns="http://www.w3.org/2000/svg"><path d="M8.005 15L6.99 13.993C3.385 10.43 1.005 8.08 1.005 5.196 1.005 2.846 2.699 1 4.855 1c1.218 0 2.387.618 3.15 1.595C8.768 1.618 9.937 1 11.155 1c2.156 0 3.85 1.846 3.85 4.196 0 2.884-2.38 5.234-5.985 8.805L8.005 15z"/></symbol><symbol viewBox="0 0 18 18" id="heart-plus" xmlns="http://www.w3.org/2000/svg"><path d="M14.657 6.27h-2.374V9h-2.73v2.374h2.73v2.73h2.374v-2.73h2.73V9h-2.73V6.27z"/><path d="M8.367 7.813h2.73v-2.73h4.747v2.73h1.377A4.963 4.963 0 009 2.257a4.962 4.962 0 10-7.88 6.024l7.879 9.541 2.097-2.539V12.56h-2.73V7.813z"/></symbol><symbol viewBox="0 0 21 22" id="instagram" xmlns="http://www.w3.org/2000/svg"><path d="M18.904 15.512a3.944 3.944 0 01-3.936 3.952H6.072a3.945 3.945 0 01-3.936-3.952v-8.92a3.952 3.952 0 013.936-3.96h8.896a3.952 3.952 0 013.936 3.96v8.92zm-4-14.824H6.176A5.944 5.944 0 00.24 6.64v8.72a5.944 5.944 0 005.936 5.952h8.688A5.947 5.947 0 0020.8 15.36V6.64A5.942 5.942 0 0014.864.688h.04zM10.52 14.52a3.472 3.472 0 113.456-3.472 3.463 3.463 0 01-3.456 3.472zm0-8.8a5.36 5.36 0 105.336 5.352 5.352 5.352 0 00-5.336-5.376v.024zm5.512-1.472a1.248 1.248 0 101.148.771 1.242 1.242 0 00-1.148-.771z"/></symbol><symbol viewBox="0 0 30 30" id="lamp" xmlns="http://www.w3.org/2000/svg"><path d="M18.42 26.216v.877a1.39 1.39 0 01-1.18 1.376l-.215.796a.991.991 0 01-.957.735h-2.142a.991.991 0 01-.957-.735l-.21-.796a1.396 1.396 0 01-1.185-1.383v-.876c0-.47.377-.846.846-.846h5.154c.47.006.846.383.846.852zm3.969-11.815c0 1.994-.79 3.803-2.074 5.13A6.777 6.777 0 0018.5 23.21a1.222 1.222 0 01-1.21 1.03h-4.586a1.21 1.21 0 01-1.204-1.024 6.852 6.852 0 00-1.827-3.691 7.359 7.359 0 01-2.062-5.043 7.369 7.369 0 017.34-7.47 7.385 7.385 0 017.438 7.39zm-6.556-4.475A.834.834 0 0015 9.093a5.339 5.339 0 00-5.333 5.333.834.834 0 001.666 0A3.671 3.671 0 0115 10.759a.83.83 0 00.833-.833zM15 4.586c.457 0 .833-.37.833-.833V.833a.834.834 0 00-1.666 0v2.92c0 .463.376.833.833.833zm-9.809 9.81a.834.834 0 00-.833-.834h-2.92a.834.834 0 000 1.666h2.92a.83.83 0 00.833-.833zm23.37-.834h-2.919a.834.834 0 000 1.666h2.92a.834.834 0 000-1.666zM6.89 21.333l-2.07 2.068a.83.83 0 101.173 1.18l2.068-2.069a.83.83 0 000-1.179.824.824 0 00-1.173 0zm15.636-13.63c.21 0 .426-.08.586-.24l2.068-2.068a.83.83 0 000-1.179.83.83 0 00-1.179 0l-2.068 2.068a.83.83 0 00.593 1.42zM6.889 7.458a.832.832 0 001.173-1.18L5.994 4.21a.83.83 0 00-1.18 0 .83.83 0 000 1.179L6.89 7.457zM23.11 21.333a.831.831 0 00-1.179 0 .83.83 0 000 1.18L24 24.58a.832.832 0 001.173-1.179l-2.062-2.068z"/></symbol><symbol viewBox="0 0 21 21" id="mail-ru" xmlns="http://www.w3.org/2000/svg"><path fill-rule="evenodd" clip-rule="evenodd" d="M10.764.866c5.425.017 9.834 4.436 9.834 9.866 0 .77-.064 1.394-.208 2.02l-.002.01s-.072.291-.111.417c-.244.78-.685 1.43-1.277 1.878a3.332 3.332 0 01-2.267.665 3.208 3.208 0 01-2.465-1.473 4.95 4.95 0 01-3.536 1.473 4.996 4.996 0 01-4.99-4.99 4.996 4.996 0 014.99-4.99 4.996 4.996 0 014.99 4.99v1.608c.005.939.634 1.323 1.173 1.366.535.041 1.247-.27 1.496-1.288a7.888 7.888 0 00.184-1.686c0-4.325-3.518-7.844-7.843-7.844S2.89 6.407 2.89 10.732c0 4.324 3.518 7.843 7.843 7.843a7.81 7.81 0 004.234-1.244l.023-.014 1.329 1.545-.029.02a9.808 9.808 0 01-5.557 1.715c-5.44 0-9.866-4.425-9.866-9.866 0-5.44 4.426-9.865 9.866-9.865h.032zm-.032 12.332a2.467 2.467 0 100-4.933 2.467 2.467 0 000 4.933z"/></symbol><symbol viewBox="0 0 10 12" id="marker" xmlns="http://www.w3.org/2000/svg"><path d="M4.839 0C2.507 0 .609 1.95.609 4.346c0 2.974 3.786 7.34 3.947 7.524a.374.374 0 00.566 0c.162-.184 3.947-4.55 3.947-7.524C9.069 1.95 7.17 0 4.839 0zm0 6.532c-1.173 0-2.128-.98-2.128-2.186s.955-2.187 2.128-2.187 2.128.981 2.128 2.187-.955 2.186-2.128 2.186z"/></symbol><symbol viewBox="0 0 16 30" id="mouse" xmlns="http://www.w3.org/2000/svg"><path d="M8.363 7.1h-.726a7.27 7.27 0 00-7.27 7.27v8.36A7.27 7.27 0 007.636 30h.726a7.27 7.27 0 007.27-7.27v-8.36a7.27 7.27 0 00-7.27-7.27zm1.545 7.494a1.908 1.908 0 01-3.816 0V11.57a1.908 1.908 0 013.816 0v3.025zm-.763-8.682h-2.29V3.895A3.9 3.9 0 0110.75 0h2.306v2.29H10.75c-.885 0-1.605.72-1.605 1.605v2.017z"/></symbol><symbol viewBox="0 0 14 12" id="next" xmlns="http://www.w3.org/2000/svg"><path fill-rule="evenodd" clip-rule="evenodd" d="M10.674 5.081L7.769 1.913A.895.895 0 019.084.7l4.285 4.62a1 1 0 010 1.36L9.084 11.3a.895.895 0 01-1.315-1.213l2.905-3.168H.918a.919.919 0 010-1.838h9.755z"/></symbol><symbol viewBox="0 0 30 30" id="nipple" xmlns="http://www.w3.org/2000/svg"><g clip-path="url(#ayclip0)"><path d="M14.923 23.693a6.163 6.163 0 01-5.026 2.586 6.139 6.139 0 01-4.37-1.811 6.19 6.19 0 01.774-9.4 20.364 20.364 0 01-1.535-2.886l-.042-.1a9.62 9.62 0 00-1.907 1.482c-3.753 3.754-3.753 9.862 0 13.615A9.56 9.56 0 009.622 30a9.56 9.56 0 006.806-2.82 9.665 9.665 0 001.48-1.91l-.1-.04a20.362 20.362 0 01-2.885-1.536zm8.42-8.32c-1.43.168-2.74.787-3.72 1.768l-.039.04c-.48.48-1.117.744-1.795.744a2.52 2.52 0 01-1.794-.743l-3.263-3.264a2.54 2.54 0 010-3.587l.182-.182c.922-.923 1.516-2.155 1.7-3.505-1.25-.752-2.479-1.32-3.588-1.65-2.583-.766-3.937-.115-4.618.566-1.181 1.182-1.21 3.298-.078 5.958.993 2.337 2.821 4.936 5.015 7.131 2.195 2.195 4.793 4.024 7.129 5.017 1.3.553 2.469.83 3.463.83 1.04 0 1.89-.303 2.494-.908.682-.683 1.334-2.04.562-4.63-.331-1.11-.899-2.337-1.65-3.585z"/><path d="M27.928 1.925A6.772 6.772 0 0023.045 0a6.783 6.783 0 00-4.817 2.103 6.84 6.84 0 00-1.875 4.236c-.135 1.923-.93 3.702-2.237 5.01l-.182.182a.837.837 0 000 1.184l3.263 3.264a.837.837 0 001.184 0l.04-.04c1.356-1.357 3.195-2.172 5.177-2.297a6.821 6.821 0 004.399-1.987 6.785 6.785 0 002-4.88 6.786 6.786 0 00-2.07-4.851z"/></g><defs><clipPath id="ayclip0"><path d="M0 0h30v30H0z"/></clipPath></defs></symbol><symbol viewBox="0 0 11 19" id="ok" xmlns="http://www.w3.org/2000/svg"><path d="M5.367 0a4.71 4.71 0 00-2.672.83A4.913 4.913 0 00.923 3.045a5.071 5.071 0 00-.275 2.856 4.98 4.98 0 001.315 2.532 4.764 4.764 0 002.461 1.352 4.68 4.68 0 002.777-.283A4.836 4.836 0 009.356 7.68c.528-.813.808-1.77.807-2.747 0-.648-.124-1.29-.365-1.888a4.944 4.944 0 00-1.04-1.6A4.79 4.79 0 007.202.375 4.681 4.681 0 005.367 0zm0 6.926a1.977 1.977 0 01-1.418-.604 2.093 2.093 0 01-.587-1.458c0-.547.21-1.072.587-1.459a1.977 1.977 0 011.418-.604 1.922 1.922 0 011.431.59c.188.193.335.423.434.676.098.253.146.524.14.797a2.087 2.087 0 01-.585 1.46 1.995 1.995 0 01-.652.447 1.95 1.95 0 01-.768.155zm1.93 6.926a8.709 8.709 0 002.866-1.247 1.43 1.43 0 00.427-.517 1.473 1.473 0 00-.065-1.414 1.396 1.396 0 00-.571-.523 1.35 1.35 0 00-1.46.169 5.899 5.899 0 01-3.075.884 7.218 7.218 0 01-3.27-.97 1.407 1.407 0 00-.785-.215c-.361 0-.708.148-.963.41a1.42 1.42 0 00-.4.991c-.012.239.041.477.155.685.114.209.284.38.49.492.852.571 1.801.97 2.798 1.178L.795 16.568a1.435 1.435 0 000 1.993A1.38 1.38 0 001.798 19a1.417 1.417 0 001.002-.439l2.567-2.724 2.648 2.724c.261.243.603.373.955.364.351-.01.686-.158.934-.414s.391-.601.399-.963a1.432 1.432 0 00-.357-.98l-2.649-2.716z"/></symbol><symbol viewBox="0 0 20 20" id="phone" xmlns="http://www.w3.org/2000/svg"><path d="M17.304 2.62C15.566.93 13.255 0 10.798 0a.72.72 0 00-.73.709.72.72 0 00.73.709c2.068 0 4.013.783 5.475 2.204 1.463 1.422 2.268 3.313 2.268 5.324a.72.72 0 00.73.709.72.72 0 00.729-.71c0-2.389-.957-4.635-2.696-6.325z"/><path d="M14.305 8.945a.72.72 0 00.73.71.72.72 0 00.728-.71c0-2.661-2.228-4.826-4.965-4.827a.72.72 0 00-.73.709.72.72 0 00.73.709c1.933 0 3.507 1.53 3.507 3.41zm-1.613 3.615c-1.111-.056-1.678.747-1.95 1.133a.696.696 0 00.19.986.742.742 0 001.014-.185c.321-.456.467-.528.664-.519.63.072 3.116 1.843 3.365 2.396a.714.714 0 01-.007.518c-.26.753-.693 1.282-1.25 1.53-.528.235-1.176.214-1.873-.062-2.603-1.031-4.878-2.47-6.76-4.278l-.002-.003C4.227 12.248 2.749 10.04 1.69 7.514c-.284-.679-.306-1.309-.063-1.823.255-.54.8-.96 1.573-1.214a.773.773 0 01.53-.007c.572.242 2.393 2.658 2.467 3.265.01.199-.064.34-.533.651a.696.696 0 00-.19.985.742.742 0 001.013.186c.397-.264 1.224-.813 1.166-1.897-.063-1.132-2.329-4.13-3.412-4.518a2.264 2.264 0 00-1.506-.009C1.57 3.515.728 4.195.301 5.101c-.414.878-.4 1.897.039 2.947 1.133 2.704 2.72 5.07 4.714 7.033l.015.014c2.017 1.935 4.448 3.474 7.226 4.575a4.43 4.43 0 001.628.33c.493 0 .965-.098 1.403-.293.932-.415 1.632-1.233 2.024-2.367a2.083 2.083 0 00-.007-1.46c-.4-1.056-3.484-3.259-4.651-3.32z"/></symbol><symbol viewBox="0 0 33 34" id="price" xmlns="http://www.w3.org/2000/svg"><path fill-rule="evenodd" clip-rule="evenodd" d="M11.293 4.003c.675 0 1.277.214 1.74.572 1.058-.818 2.63-.76 3.652.181.513.473.845 1.131.845 1.866 0 .987-.536 1.96-1.235 2.792-1.034 1.228-2.562 2.221-3.027 2.336a.982.982 0 01-.655-.066c-.612-.262-1.92-1.165-2.839-2.258-.701-.834-1.238-1.813-1.238-2.804 0-1.47 1.32-2.62 2.758-2.62zm2.265 25.576a.989.989 0 110-1.978h6.726a.989.989 0 110 1.978h-6.726zm0-3.955a.989.989 0 010-1.978h2.505a.989.989 0 110 1.978h-2.505zM5.78 23.646h3.823a.99.99 0 01.989.989v3.955a.989.989 0 01-.989.988H5.78a.989.989 0 01-.989-.988v-3.955a.99.99 0 01.989-.99zm2.834 1.978H6.77V27.6h1.845v-1.977zm4.944-5.406a.989.989 0 110-1.977h6.726a.988.988 0 110 1.977h-6.726zm0-3.955a.988.988 0 110-1.977h2.505a.989.989 0 010 1.977h-2.505zM5.78 14.286h3.823a.99.99 0 01.989.989v3.955a.989.989 0 01-.989.988H5.78a.989.989 0 01-.989-.988v-3.956a.99.99 0 01.989-.988zm2.834 1.977H6.77v1.978h1.845v-1.978zm22.348-.725h-5.734v13.415c-.01 1.557 1.286 2.867 2.867 2.867a2.878 2.878 0 002.867-2.867V15.538zm-5.734-1.977V1.036a.99.99 0 00-.99-.989H1.828a.989.989 0 00-.99.99V29.05a4.753 4.753 0 004.747 4.746h22.51a4.857 4.857 0 004.846-4.844V14.55a.988.988 0 00-.989-.99h-6.723zM24.195 31.82a4.816 4.816 0 01-.945-2.867V2.024H2.815V29.05a2.775 2.775 0 002.769 2.769h18.61zM11.83 6.14c-.293-.225-.797-.224-1.114.068a.577.577 0 00-.204.414c0 1.09 1.832 2.689 2.518 3.099.673-.408 2.521-2.013 2.521-3.099 0-.353-.407-.642-.78-.642-.373 0-.701.181-.771.525a.985.985 0 01-1.934.01.627.627 0 00-.236-.375z"/></symbol><symbol viewBox="0 0 30 30" id="quadcopters" xmlns="http://www.w3.org/2000/svg"><path d="M14.222 10.522a4.88 4.88 0 00-.093-.721c.197.114.408.179.626.179h.192c.217 0 .429-.065.625-.18a4.88 4.88 0 00-.093.722h-1.257zm-.189.001h1.636a5.924 5.924 0 00.895 2.872l.04.065a2.699 2.699 0 01.07 2.744l-.32.58a5.506 5.506 0 00-.685 2.395h-1.636a5.51 5.51 0 00-.684-2.396l-.322-.579a2.706 2.706 0 01.07-2.745l.04-.064a5.923 5.923 0 00.896-2.872zm9.369 2.672A6.605 6.605 0 0030 6.597 6.605 6.605 0 0023.402 0a6.604 6.604 0 00-6.597 6.597 6.604 6.604 0 006.598 6.598zm0-12.095A5.504 5.504 0 0128.9 6.597a5.504 5.504 0 01-5.497 5.498 5.504 5.504 0 01-5.498-5.498A5.504 5.504 0 0123.402 1.1z"/><path d="M27.8 6.597a4.398 4.398 0 11-8.795 0 4.398 4.398 0 018.796 0zM23.402 30A6.605 6.605 0 0030 23.403a6.605 6.605 0 00-6.598-6.597 6.604 6.604 0 00-6.597 6.597A6.605 6.605 0 0023.403 30zm0-12.095a5.504 5.504 0 015.498 5.498 5.504 5.504 0 01-5.497 5.498 5.504 5.504 0 01-5.498-5.498 5.504 5.504 0 015.497-5.498z"/><path d="M27.8 23.403a4.398 4.398 0 11-8.795 0 4.398 4.398 0 018.796 0zM6.597 16.805A6.604 6.604 0 000 23.403 6.604 6.604 0 006.597 30a6.605 6.605 0 006.598-6.597 6.605 6.605 0 00-6.598-6.598zm0 12.096A5.504 5.504 0 011.1 23.402a5.504 5.504 0 015.497-5.498 5.504 5.504 0 015.498 5.498A5.504 5.504 0 016.597 28.9z"/><path d="M2.199 23.403a4.398 4.398 0 118.796 0 4.398 4.398 0 01-8.796 0zM6.597 0A6.605 6.605 0 000 6.597a6.604 6.604 0 006.597 6.597 6.605 6.605 0 006.598-6.597A6.605 6.605 0 006.597 0zm0 12.095A5.504 5.504 0 011.1 6.597a5.504 5.504 0 015.497-5.498 5.504 5.504 0 015.498 5.498 5.504 5.504 0 01-5.498 5.498z"/><path d="M2.199 6.597a4.398 4.398 0 118.796 0 4.398 4.398 0 01-8.796 0zM15.48 19.18c.013.248.044.489.092.721a1.237 1.237 0 00-.625-.179h-.193c-.217 0-.428.064-.625.18a4.88 4.88 0 00.093-.722h1.257z"/></symbol><symbol viewBox="0 0 16 16" id="search" xmlns="http://www.w3.org/2000/svg"><g clip-path="url(#bdclip0)"><path d="M11.565 1.984A6.73 6.73 0 006.775 0a6.73 6.73 0 00-4.79 1.984A6.73 6.73 0 000 6.774a6.73 6.73 0 001.984 4.79 6.73 6.73 0 004.79 1.985 6.73 6.73 0 004.79-1.984 6.73 6.73 0 001.985-4.79 6.73 6.73 0 00-1.984-4.79zm-4.79 10.272a5.488 5.488 0 01-5.482-5.482 5.488 5.488 0 015.481-5.481 5.488 5.488 0 015.482 5.481 5.488 5.488 0 01-5.482 5.482z"/><path d="M15.811 14.897l-4.249-4.249a.646.646 0 10-.914.914l4.249 4.25a.645.645 0 00.914 0 .646.646 0 000-.915z"/></g><defs><clipPath id="bdclip0"><path d="M0 0h16v16H0z"/></clipPath></defs></symbol><symbol viewBox="0 0 16 16" id="star" xmlns="http://www.w3.org/2000/svg"><path d="M8 12.861L12.944 16l-1.308-5.92L16 6.1l-5.753-.52L8 0 5.753 5.58 0 6.1l4.364 3.98L3.056 16 8 12.861z"/></symbol><symbol viewBox="0 0 30 26" id="toy" xmlns="http://www.w3.org/2000/svg"><path d="M28.494 19.67c-.46.368-1.102.736-1.908 1.083-1.026-1.543-1.917-3.192-2.58-4.925-.496-1.298-.97-2.773-.83-4.183.081-.818.646-1.937 1.658-1.736.41.082.724.426 1.062.646.533.348 1.138.448 1.765.363 1.228-2.903.134-6.163-1.684-7.865l-.46-2.15c-1.44.03-3.047.255-4.142 1.284-.76.715-1.12 1.703-1.473 2.659-.354.954-.756 1.91-1.537 2.593.407.607.643 1.323.643 2.088 0 2.192-1.928 3.975-4.298 3.975s-4.299-1.783-4.299-3.975c0-.164.012-.325.033-.484-3.648-1.667-6.8 1.304-7.066 1.516l1.941 2.036c1.464-1.605 3.188-1.902 3.295-1.91-3.046 2.824-4.859 7.89-5.496 9.936-.669-.308-1.21-.63-1.612-.951L0 21.553c1.54 1.232 3.5 1.92 5.384 2.416 2.56.676 5.216.992 7.859 1.092 2.822.108 5.666-.027 8.456-.48 2.231-.36 4.491-.91 6.525-1.921.625-.31 1.23-.67 1.776-1.107l-1.506-1.883zm-14.041 3.01c-2.986-.037-6.01-.35-8.887-1.173 2.044-3.133 5.41-5.457 9.272-5.224 3.554.215 6.684 2.494 8.694 5.332l.078.112c-2.984.74-6.09.99-9.157.953z"/></symbol><symbol viewBox="0 0 20 12" id="vk" xmlns="http://www.w3.org/2000/svg"><path d="M19.296 1.112c.152-.464 0-.8-.616-.8H16.6a.952.952 0 00-.928.616 17.483 17.483 0 01-2.616 4.312c-.464.464-.696.616-1 .616-.16 0-.312-.152-.312-.616V1.08c0-.536-.152-.8-.616-.8H7.816a.52.52 0 00-.544.464c0 .536.8.616.848 2.08V6c0 .696-.152.8-.384.8-.688 0-2.464-2.616-3.464-5.6C4.04.584 3.888.352 3.344.352h-2.08C.648.352.576.664.576.968c0 .544.688 3.312 3.312 7.016 1.768 2.464 4.16 3.848 6.4 3.848 1.312 0 1.544-.304 1.544-.848v-1.92c0-.624.152-.696.536-.696s.848.152 2.08 1.384c1.464 1.464 1.696 2.08 2.464 2.08h2.08c.616 0 .928-.304.696-.92a7.496 7.496 0 00-1.776-2.472c-.456-.616-1.232-1.232-1.464-1.536a.638.638 0 010-.928c-.008.024 2.616-3.632 2.848-4.864z"/></symbol></svg>