<svg width="18" height="22" viewBox="0 0 18 22" fill="none" xmlns="http://www.w3.org/2000/svg">
<path d="M0.938557 8.08754C-0.921345 11.3151 0.261029 16.213 2.31778 19.1828C3.34442 20.6675 4.38383 22.0003 5.80748 22.0003C5.83431 22.0003 5.86122 21.9998 5.88877 21.9987C6.55765 21.972 7.041 21.7661 7.50834 21.567C8.03302 21.3434 8.57566 21.1123 9.42681 21.1123C10.2366 21.1123 10.7533 21.3359 11.253 21.5522C11.7455 21.7653 12.2528 21.9857 13.0024 21.9716C14.606 21.9418 15.5906 20.5036 16.4593 19.2349C17.3658 17.9102 17.8205 16.624 17.9739 16.1325L17.9801 16.113C18.0093 16.0256 17.9681 15.9303 17.8843 15.8918C17.882 15.8908 17.8735 15.8872 17.8711 15.8862C17.5887 15.7707 15.1116 14.6718 15.0856 11.6766C15.0614 9.24323 16.9439 7.95461 17.3214 7.72105L17.339 7.71008C17.3799 7.68375 17.4084 7.64199 17.4181 7.59424C17.4277 7.54656 17.4176 7.49693 17.3902 7.45683C16.0909 5.55531 14.0993 5.26873 13.2975 5.23425C13.1812 5.22264 13.0611 5.2168 12.9405 5.2168C11.9987 5.2168 11.0966 5.57248 10.3718 5.85826C9.8715 6.05554 9.43936 6.22591 9.14131 6.22591C8.80641 6.22591 8.37182 6.05345 7.86856 5.85379C7.19557 5.58669 6.43279 5.28402 5.62528 5.28402C5.60602 5.28402 5.58705 5.28424 5.56837 5.2846C3.69079 5.31223 1.91666 6.3864 0.938557 8.08754Z" fill="white"/>
<path d="M13.2991 0.000138595C12.1621 0.0464468 10.7982 0.746335 9.98293 1.70121C9.29011 2.50381 8.61331 3.84199 8.79161 5.19084C8.80279 5.27523 8.87146 5.34037 8.95636 5.34693C9.03311 5.35292 9.11144 5.35595 9.18949 5.35602C10.3012 5.35602 11.5006 4.74096 12.3196 3.7506C13.1817 2.70484 13.6175 1.36277 13.4857 0.16063C13.4753 0.0664271 13.3924 -0.00354009 13.2991 0.000138595Z" fill="white"/>
</svg>
