<svg width="20" height="20" viewBox="0 0 20 20" fill="none" xmlns="http://www.w3.org/2000/svg">
<path d="M19.8549 4.98623C19.7233 4.77226 19.5176 4.63457 19.2912 4.6087L3.39391 2.78874L1.36069 0.286844C1.06367 -0.0784782 0.565901 -0.0974576 0.248845 0.244896C-0.0682102 0.58725 -0.0844667 1.16098 0.212557 1.52643L2.2354 4.0155V15.6787C2.2354 16.7933 2.96233 17.714 3.89808 17.8488C3.82152 18.0414 3.77767 18.2547 3.77767 18.4804C3.77767 19.3196 4.36795 20 5.09603 20C5.82411 20 6.41439 19.3196 6.41439 18.4804C6.41439 18.2622 6.37369 18.0552 6.30185 17.8675H13.7235C13.6517 18.0552 13.611 18.2621 13.611 18.4804C13.611 19.3196 14.2013 20 14.9294 20C15.6575 20 16.2477 19.3196 16.2477 18.4804C16.2477 18.2622 16.207 18.0552 16.1352 17.8675H16.8172C17.2516 17.8675 17.6038 17.4617 17.6038 16.9609C17.6038 16.46 17.2516 16.0542 16.8172 16.0542H4.13427C3.95471 16.0542 3.80851 15.8857 3.80851 15.6787V14.65H17.4828C17.8459 14.65 18.1618 14.3636 18.2473 13.9568L19.9778 5.72413C20.0315 5.46942 19.9866 5.20008 19.8549 4.98623Z" fill="white"/>
</svg>
