<svg width="17" height="18" viewBox="0 0 17 18" fill="none" xmlns="http://www.w3.org/2000/svg">
<path d="M4.80488 14.4C3.92488 14.4 3.20488 15.21 3.20488 16.2C3.20488 17.19 3.92488 18 4.80488 18C5.68488 18 6.40488 17.19 6.40488 16.2C6.40488 15.21 5.68488 14.4 4.80488 14.4ZM0.00488281 0V1.8H1.60488L4.48488 8.64L3.36488 10.8C3.28488 11.07 3.20488 11.43 3.20488 11.7C3.20488 12.69 3.92488 13.5 4.80488 13.5H14.4049V11.7H5.12488C5.04488 11.7 4.96488 11.61 4.96488 11.52V11.43L5.68488 9.89997H11.6049C12.2449 9.89997 12.7249 9.53996 12.9649 8.99996L15.8449 3.15C16.0049 2.97 16.0049 2.88 16.0049 2.7C16.0049 2.16 15.6849 1.8 15.2049 1.8H3.36488L2.64488 0H0.00488281ZM12.8049 14.4C11.9249 14.4 11.2049 15.21 11.2049 16.2C11.2049 17.19 11.9249 18 12.8049 18C13.6849 18 14.4049 17.19 14.4049 16.2C14.4049 15.21 13.6849 14.4 12.8049 14.4Z" fill="url(#paint0_linear)"/>
<defs>
<linearGradient id="paint0_linear" x1="0.00488281" y1="9.00005" x2="16.0049" y2="9.00005" gradientUnits="userSpaceOnUse">
<stop stop-color="#4E20B1"/>
<stop offset="1" stop-color="#8D0ACB"/>
</linearGradient>
</defs>
</svg>
