<svg width="30" height="30" viewBox="0 0 30 30" fill="none" xmlns="http://www.w3.org/2000/svg">
<path d="M25.8682 21.9054C25.7238 21.9054 25.5812 21.9131 25.4404 21.9273L23.8081 16.7935C24.4416 16.506 25.0145 16.1117 25.5022 15.6335C26.5659 14.591 27.2241 13.1522 27.2241 11.5663C27.2241 8.39149 24.5869 5.80833 21.346 5.80833C19.7269 5.80833 18.2581 6.45309 17.1934 7.49496C16.1279 8.53798 15.4683 9.97787 15.4683 11.5663C15.4683 12.2742 15.5997 12.9527 15.8393 13.5796L12.9504 15.1556C11.8552 13.4681 10.0305 12.2775 7.91428 12.0133V9.92088C8.95866 9.74464 9.89594 9.25758 10.6213 8.55904C11.5629 7.65244 12.1479 6.39038 12.1479 4.99741C12.1479 2.24167 9.85954 0 7.04636 0C5.62431 0 4.33617 0.57312 3.41034 1.49551C2.50465 2.39799 1.94481 3.63464 1.94481 4.99741C1.94481 7.42493 3.72093 9.45259 6.06674 9.90143V12.0216C4.51561 12.2292 3.12378 12.9343 2.06566 13.9684C0.7901 15.2135 0 16.9359 0 18.8356C0 22.6284 3.1501 25.7135 7.02118 25.7135C8.96049 25.7135 10.7188 24.9394 11.99 23.69C13.258 22.4455 14.0424 20.728 14.0424 18.8356C14.0424 18.1281 13.9327 17.4451 13.7292 16.8024L16.7519 15.1531C17.8299 16.4751 19.4884 17.3238 21.346 17.3238C21.5769 17.3238 21.8049 17.3103 22.0292 17.2847L23.6922 22.5144C23.4386 22.6689 23.2029 22.8486 22.9898 23.0516C22.2176 23.7877 21.7367 24.8163 21.7367 25.9527C21.7367 28.1843 23.5904 30 25.8682 30C27.0284 30 28.0785 29.529 28.83 28.7725C29.5541 28.0431 30 27.0477 30 25.9527C30 23.7206 28.1463 21.9054 25.8682 21.9054Z" fill="white"/>
</svg>
