<svg width="24" height="30" viewBox="0 0 24 30" fill="none" xmlns="http://www.w3.org/2000/svg">
<path d="M22.9196 27.4164V26.7686C22.9196 26.4929 22.7613 26.2427 22.513 26.1239C22.3547 26.048 18.6976 24.3413 12.7134 24.2105V21.7711C13.1391 21.5241 13.4276 21.0678 13.4276 20.5406V19.7524H18.4934C18.4978 19.7524 18.5042 19.7524 18.5074 19.7524C19.2963 19.7524 19.9358 19.1122 19.9358 18.324C19.9358 18.2046 19.9198 18.0897 19.8924 17.9793C21.1389 17.5677 21.7937 17.1949 21.8518 17.1598C22.0701 17.0322 22.2047 16.7979 22.2047 16.5433V12.6372H22.8819C23.277 12.6372 23.5961 12.3175 23.5961 11.923C23.5961 11.5286 23.277 11.2088 22.8819 11.2088H20.0998C19.7054 11.2088 19.3863 11.5286 19.3863 11.923C19.3863 12.3175 19.7054 12.6372 20.0998 12.6372H20.7776V16.1022C20.4279 16.2631 19.8183 16.5139 18.9593 16.7679L18.4755 16.2841C18.1487 15.9574 17.6828 15.808 17.2264 15.8852C17.2105 15.8878 15.7866 16.122 13.4283 16.1961V14.9483C16.0285 14.7868 17.3509 14.2252 17.5143 14.1511C18.0728 13.8984 18.4072 13.317 18.3459 12.7068L17.2513 1.83304C17.199 1.31287 16.8665 0.862267 16.3852 0.659306C16.2244 0.591652 14.7398 0 11.9992 0C9.25861 0 7.7747 0.591652 7.6145 0.659306C7.13198 0.862267 6.8001 1.31223 6.74776 1.83304L5.65317 12.7093C5.59126 13.3195 5.92634 13.9009 6.48544 14.1537C6.6482 14.2271 7.97064 14.7894 10.5708 14.9509V16.1986C8.21253 16.1246 6.78925 15.8916 6.77393 15.8878C6.31439 15.8093 5.85167 15.9586 5.52361 16.2867L5.04046 16.7705C4.18011 16.5165 3.57058 16.2656 3.2221 16.1048V12.6404H3.89928C4.29435 12.6404 4.61347 12.3207 4.61347 11.9262C4.61347 11.5318 4.29435 11.212 3.89928 11.212H1.11654C0.721466 11.212 0.402344 11.5318 0.402344 11.9262C0.402344 12.3207 0.721466 12.6404 1.11654 12.6404H1.79371V16.5465C1.79371 16.7992 1.92838 17.0354 2.14666 17.1636C2.2073 17.1987 2.86533 17.576 4.12586 17.9889C4.05501 18.278 4.0665 18.5876 4.18585 18.8741C4.40732 19.4077 4.92813 19.7556 5.50574 19.7556H10.5715V20.5444C10.5715 21.0716 10.86 21.5267 11.2857 21.775V24.2143C5.30086 24.3439 1.645 26.0506 1.48608 26.1265C1.23844 26.2459 1.08016 26.4967 1.08016 26.7711V27.4202C0.67615 27.664 0.402982 28.1025 0.402982 28.6093C0.402982 29.3777 1.02718 30.0013 1.79435 30.0013C2.56344 30.0013 3.18636 29.3777 3.18636 28.6093C3.18636 28.1025 2.91319 27.6634 2.50855 27.4202V27.2453C3.58143 26.819 6.72542 25.7455 11.2857 25.6414V27.4202C10.8817 27.664 10.6085 28.1025 10.6085 28.6093C10.6085 29.3777 11.2327 30.0013 11.9999 30.0013C12.769 30.0013 13.3919 29.3777 13.3919 28.6093C13.3919 28.1025 13.1187 27.6634 12.7141 27.4202V25.6414C17.2571 25.7467 20.4132 26.8203 21.4912 27.2453V27.4202C21.0865 27.664 20.8134 28.1025 20.8134 28.6093C20.8134 29.3777 21.4382 30.0013 22.2054 30.0013C22.9738 30.0013 23.5968 29.3777 23.5968 28.6093C23.5961 28.0987 23.3242 27.6596 22.9196 27.4164ZM9.71815 4.12561C9.75006 4.1122 10.5281 3.79053 11.9992 3.79053C13.4704 3.79053 14.2478 4.1122 14.2803 4.12561C14.4622 4.20283 14.5477 4.41218 14.4711 4.59344C14.4131 4.72938 14.2803 4.81172 14.1418 4.81172C14.0952 4.81172 14.0486 4.80214 14.002 4.78364C13.9969 4.78108 13.3102 4.50472 11.9986 4.50472C10.687 4.50472 10.0003 4.78108 9.99323 4.78427C9.81133 4.86022 9.60326 4.77279 9.52731 4.59152C9.452 4.41026 9.53752 4.20156 9.71815 4.12561Z" fill="white"/>
</svg>
