<svg width="30" height="30" viewBox="0 0 30 30" fill="none" xmlns="http://www.w3.org/2000/svg">
<path d="M15.0251 21.2055C15.7482 21.2055 16.3364 20.6173 16.3364 19.8943C16.3364 19.1712 15.7482 18.583 15.0251 18.583C14.3021 18.583 13.7139 19.1712 13.7139 19.8943C13.7139 20.6173 14.3021 21.2055 15.0251 21.2055Z" fill="white"/>
<path d="M5.50781 5.27637H24.5423V7.03716H5.50781V5.27637Z" fill="white"/>
<path d="M5.50781 12.3135V29.9996H24.5423V12.3135H5.50781ZM15.0252 16.825C16.7175 16.825 18.0943 18.2017 18.0943 19.894C18.0943 21.5864 16.7175 22.9631 15.0252 22.9631C13.3328 22.9631 11.9561 21.5864 11.9561 19.894C11.9561 18.2017 13.3328 16.825 15.0252 16.825ZM9.02573 24.7237H21.0244V26.4817H9.02573V24.7237Z" fill="white"/>
<path d="M5.50781 8.79492H24.5423V10.5555H5.50781V8.79492Z" fill="white"/>
<path d="M5.50781 0H24.5423V3.5186H5.50781V0Z" fill="white"/>
</svg>
