<svg width="30" height="30" viewBox="0 0 30 30" fill="none" xmlns="http://www.w3.org/2000/svg">
<path d="M8.31689 19.041L0.692728 28.3608C0.494271 28.6038 0.486654 28.9608 0.692728 29.2125C0.92722 29.5006 1.35173 29.5433 1.63884 29.3077L10.9615 21.6828C10.4852 21.2586 10.0267 20.8275 9.59956 20.4C9.15249 19.9532 8.72535 19.4976 8.31689 19.041Z" fill="#E61F9F"/>
<path d="M26.2437 3.75577C23.6369 1.14823 20.6916 -0.131689 19.6631 0.893701C19.6102 0.946904 14.2282 8.28806 11.5306 11.9667C9.76303 10.707 8.17789 9.96976 7.15619 9.97058C6.78271 9.97058 6.48324 10.068 6.27898 10.2741C5.15416 11.397 7.25434 15.3176 10.9681 19.0315C14.0031 22.0664 17.1774 24.025 18.8483 24.025C19.2225 24.025 19.5205 23.9266 19.7255 23.7216C20.4921 22.955 19.7576 20.8851 18.0346 18.4682C21.7144 15.7704 29.053 10.3885 29.1048 10.3365C30.1323 9.31005 28.8506 6.3636 26.2437 3.75577Z" fill="#E61F9F"/>
</svg>
