<svg width="30" height="18" viewBox="0 0 30 18" fill="none" xmlns="http://www.w3.org/2000/svg">
<path d="M29.9077 14.6022L27.977 3.66475C27.462 0.747297 24.8279 -0.650038 22.1226 0.559698L19.9173 1.54554C17.2109 2.75546 12.7872 2.75546 10.0819 1.54554L7.87661 0.559698C5.17132 -0.650038 2.53716 0.747297 2.02221 3.66475L0.0927722 14.6022C-0.422178 17.5197 1.26495 18.7103 3.84313 17.2515L3.97566 17.1771C6.55384 15.7173 11.0862 14.5215 14.049 14.5215H15.9495C18.9123 14.5215 23.4457 15.7162 26.0239 17.1771L26.1564 17.2515C28.7355 18.7133 30.4226 17.5197 29.9077 14.6022ZM9.62838 10.0848H8.54449V11.1698C8.54449 11.9639 8.05644 12.6157 7.45952 12.6157C6.8626 12.6157 6.37563 11.965 6.37563 11.1698V10.0848H5.29175C4.49657 10.0848 3.84584 9.5957 3.84584 8.99986C3.84584 8.40402 4.49657 7.91489 5.29175 7.91489H6.37563V6.82992C6.37563 6.03583 6.86368 5.38402 7.45952 5.38402C8.05536 5.38402 8.54449 6.03475 8.54449 6.82992V7.91489H9.62838C10.4236 7.91489 11.0743 8.40402 11.0743 8.99986C11.0743 9.5957 10.4214 10.0848 9.62838 10.0848ZM20.0186 10.0903C19.4153 10.0903 18.9273 9.60221 18.9273 8.99896C18.9273 8.39572 19.4153 7.90551 20.0186 7.90551C20.6218 7.90551 21.1099 8.39572 21.1099 8.99896C21.1099 9.60221 20.6207 10.0903 20.0186 10.0903ZM22.5417 12.6134C21.9384 12.6134 21.4504 12.1253 21.4504 11.5221C21.4504 10.9188 21.9384 10.4308 22.5417 10.4308C23.146 10.4308 23.634 10.9188 23.634 11.5221C23.6342 12.1253 23.1451 12.6134 22.5417 12.6134ZM22.5417 7.56804C21.9384 7.56804 21.4504 7.08 21.4504 6.47675C21.4504 5.87243 21.9384 5.38438 22.5417 5.38438C23.146 5.38438 23.634 5.87243 23.634 6.47675C23.6342 7.08 23.1451 7.56804 22.5417 7.56804ZM25.0639 10.0903C24.4606 10.0903 23.9726 9.60221 23.9726 8.99896C23.9726 8.39572 24.4606 7.90551 25.0639 7.90551C25.6682 7.90551 26.1563 8.39572 26.1563 8.99896C26.1563 9.60221 25.6671 10.0903 25.0639 10.0903Z" fill="white"/>
</svg>
