<svg width="26" height="16" viewBox="0 0 26 16" fill="none" xmlns="http://www.w3.org/2000/svg">
<path d="M0.712476 8.17577C0.720317 6.67986 1.15772 5.21768 1.97265 3.9632C2.78757 2.70873 3.94572 1.71475 5.30929 1.09954C6.67287 0.484333 8.18447 0.273784 9.66426 0.492943C11.1441 0.712102 12.5297 1.35175 13.6565 2.33577C13.0245 3.03177 12.3765 3.71977 11.6885 4.36777C10.3285 3.56777 8.68848 2.91177 7.09648 3.47177C6.47633 3.67779 5.90361 4.00567 5.41198 4.43616C4.92034 4.86664 4.51969 5.39104 4.23358 5.97855C3.94747 6.56605 3.78167 7.20482 3.7459 7.85731C3.71014 8.5098 3.80515 9.16286 4.02534 9.77811C4.24553 10.3934 4.58647 10.9584 5.02811 11.44C5.46976 11.9217 6.00322 12.3102 6.59713 12.5827C7.19105 12.8553 7.83345 13.0064 8.48659 13.0272C9.13973 13.048 9.79043 12.938 10.4005 12.7038C11.0221 12.4453 11.5742 12.0441 12.012 11.5327C12.4498 11.0212 12.761 10.4139 12.9205 9.75977C11.4405 9.75977 9.95248 9.75977 8.47248 9.71177C8.47248 8.82377 8.47248 7.94377 8.47248 7.06377C10.9445 7.06377 13.4165 7.06377 15.8965 7.06377C16.1627 9.26067 15.5914 11.4772 14.2965 13.2718C12.3765 15.7518 8.81648 16.4718 5.92848 15.5038C4.39924 14.9774 3.07241 13.9869 2.13307 12.6704C1.19372 11.3539 0.688713 9.77704 0.688477 8.15977L0.712476 8.17577ZM20.7125 4.83977H22.9125C22.9125 5.57577 22.9125 6.31977 22.9125 7.05577H25.1285V9.27977H22.9125C22.9125 10.0158 22.9125 10.7598 22.9125 11.4958H20.7125C20.7125 10.7598 20.7125 10.0158 20.7125 9.27977H18.4965V7.07177H20.7125V4.83977Z" fill="white"/>
</svg>
