<svg width="18" height="18" viewBox="0 0 18 18" fill="none" xmlns="http://www.w3.org/2000/svg">
<path d="M14.657 6.27039H12.2834V9.00006H9.55371V11.3737H12.2834V14.1034H14.657V11.3737H17.3867V9.00006H14.657V6.27039Z" fill="#828282"/>
<path d="M8.36703 7.81315H11.0967V5.08348H15.844V7.81315H17.2206C17.7139 7.02194 18 6.12494 18 5.14163C18 2.4008 15.7786 0.178457 13.0383 0.178457C11.3733 0.178457 9.9 0.998584 9 2.25712C8.1 0.998545 6.62669 0.178101 4.96171 0.178101C2.22144 0.178101 0 2.39993 0 5.1408C0 6.33228 0.419815 7.42549 1.11952 8.28095L9 17.822L11.0967 15.2834V12.5604H8.36703V7.81315Z" fill="#828282"/>
</svg>
