<svg width="21" height="22" viewBox="0 0 21 22" fill="none" xmlns="http://www.w3.org/2000/svg">
<path d="M18.9042 15.512C18.9053 16.0299 18.8043 16.543 18.6071 17.0219C18.4098 17.5008 18.1202 17.9362 17.7547 18.3032C17.3892 18.6701 16.955 18.9615 16.4769 19.1607C15.9988 19.3599 15.4862 19.4629 14.9682 19.464H6.07224C5.55431 19.4629 5.04165 19.3599 4.56354 19.1607C4.08544 18.9615 3.65124 18.6701 3.28575 18.3032C2.92026 17.9362 2.63063 17.5008 2.4334 17.0219C2.23616 16.543 2.13519 16.0299 2.13624 15.512V6.59199C2.13411 5.54523 2.54735 4.54039 3.28526 3.79798C4.02318 3.05556 5.02549 2.63622 6.07224 2.63199H14.9682C16.015 2.63622 17.0173 3.05556 17.7552 3.79798C18.4931 4.54039 18.9064 5.54523 18.9042 6.59199V15.512ZM14.9042 0.687988H6.17624C5.39566 0.689038 4.62294 0.843825 3.90218 1.14351C3.18142 1.44319 2.52675 1.88191 1.97554 2.4346C1.42433 2.9873 0.98738 3.64315 0.689637 4.36471C0.391894 5.08627 0.239188 5.85941 0.24024 6.63999V15.36C0.239188 16.1406 0.391894 16.9137 0.689637 17.6353C0.98738 18.3568 1.42433 19.0127 1.97554 19.5654C2.52675 20.1181 3.18142 20.5568 3.90218 20.8565C4.62294 21.1561 5.39566 21.3109 6.17624 21.312H14.8642C15.6448 21.3109 16.4175 21.1561 17.1383 20.8565C17.8591 20.5568 18.5137 20.1181 19.0649 19.5654C19.6161 19.0127 20.0531 18.3568 20.3508 17.6353C20.6486 16.9137 20.8013 16.1406 20.8002 15.36V6.63999C20.8013 5.85941 20.6486 5.08627 20.3508 4.36471C20.0531 3.64315 19.6161 2.9873 19.0649 2.4346C18.5137 1.88191 17.8591 1.44319 17.1383 1.14351C16.4175 0.843825 15.6448 0.689038 14.8642 0.687988H14.9042ZM10.5202 14.52C9.83287 14.5232 9.16003 14.3222 8.58696 13.9426C8.01389 13.5631 7.56639 13.0219 7.30115 12.3878C7.0359 11.7536 6.96486 11.055 7.09701 10.3805C7.22917 9.70594 7.55858 9.0858 8.0435 8.59863C8.52843 8.11146 9.14705 7.77919 9.82098 7.64392C10.4949 7.50865 11.1938 7.57647 11.8292 7.83878C12.4646 8.10109 13.0078 8.54609 13.39 9.1174C13.7722 9.6887 13.9762 10.3606 13.9762 11.048C13.9773 11.5029 13.8887 11.9535 13.7156 12.3742C13.5425 12.7949 13.2882 13.1773 12.9673 13.4998C12.6464 13.8222 12.2651 14.0782 11.8452 14.2532C11.4254 14.4283 10.9751 14.5189 10.5202 14.52ZM10.5202 5.71999C9.45878 5.71524 8.41982 6.02575 7.53504 6.61217C6.65027 7.1986 5.95953 8.03452 5.5504 9.01397C5.14127 9.99342 5.03216 11.0723 5.23691 12.1138C5.44165 13.1554 5.95104 14.1127 6.70048 14.8643C7.44993 15.616 8.40569 16.1283 9.44661 16.3362C10.4875 16.544 11.5667 16.4381 12.5474 16.0319C13.5281 15.6257 14.366 14.9375 14.9551 14.0545C15.5442 13.1715 15.8578 12.1335 15.8562 11.072C15.8594 10.3685 15.7238 9.67125 15.4573 9.02019C15.1907 8.36913 14.7984 7.777 14.3028 7.27769C13.8072 6.77837 13.2181 6.38167 12.569 6.11026C11.9199 5.83886 11.2238 5.69808 10.5202 5.69599V5.71999ZM16.0322 4.24799C15.7851 4.2464 15.543 4.31825 15.3367 4.45441C15.1304 4.59058 14.9692 4.78493 14.8735 5.01283C14.7779 5.24073 14.752 5.49191 14.7993 5.73452C14.8465 5.97713 14.9647 6.20025 15.1389 6.37559C15.3132 6.55093 15.5355 6.67058 15.7778 6.71939C16.0201 6.7682 16.2715 6.74395 16.5 6.64973C16.7285 6.55552 16.9239 6.39557 17.0613 6.19016C17.1988 5.98476 17.2722 5.74316 17.2722 5.49599C17.2733 5.33248 17.242 5.17037 17.1802 5.019C17.1183 4.86764 17.0271 4.72999 16.9119 4.614C16.7966 4.49801 16.6596 4.40595 16.5086 4.34314C16.3577 4.28032 16.1958 4.24798 16.0322 4.24799Z" fill="white"/>
</svg>
