<svg width="30" height="30" viewBox="0 0 30 30" fill="none" xmlns="http://www.w3.org/2000/svg">
<path d="M18.4198 26.2161V27.0926C18.4198 27.7901 17.9075 28.3704 17.2408 28.4691L17.0247 29.2654C16.9075 29.6975 16.5186 30 16.0679 30H13.926C13.4754 30 13.0865 29.6975 12.9692 29.2654L12.7593 28.4691C12.0865 28.3642 11.5741 27.7901 11.5741 27.0864V26.2099C11.5741 25.7407 11.9507 25.3642 12.4198 25.3642H17.5741C18.0433 25.3704 18.4198 25.7469 18.4198 26.2161ZM22.3889 14.4012C22.3889 16.3951 21.5988 18.2037 20.3149 19.5309C19.3396 20.5432 18.7099 21.8333 18.5 23.2099C18.4075 23.8025 17.8951 24.2407 17.2902 24.2407H12.7037C12.105 24.2407 11.5865 23.8086 11.5 23.216C11.284 21.8395 10.6482 20.5309 9.67288 19.5247C8.41362 18.216 7.62967 16.4383 7.61115 14.4815C7.56794 10.3704 10.8395 7.04321 14.9507 7.01235C19.0556 6.98148 22.3889 10.3025 22.3889 14.4012ZM15.8334 9.92593C15.8334 9.46914 15.463 9.09259 15 9.09259C12.0618 9.09259 9.66671 11.4815 9.66671 14.4259C9.66671 14.8827 10.0371 15.2593 10.5 15.2593C10.9568 15.2593 11.3334 14.8889 11.3334 14.4259C11.3334 12.4012 12.9815 10.7593 15 10.7593C15.463 10.7593 15.8334 10.3889 15.8334 9.92593ZM15 4.58642C15.4568 4.58642 15.8334 4.21605 15.8334 3.75309V0.833333C15.8334 0.376543 15.463 0 15 0C14.5371 0 14.1667 0.37037 14.1667 0.833333V3.75309C14.1667 4.21605 14.5433 4.58642 15 4.58642ZM5.1914 14.3951C5.1914 13.9383 4.82103 13.5617 4.35807 13.5617H1.43831C0.981524 13.5617 0.60498 13.9321 0.60498 14.3951C0.60498 14.8519 0.975351 15.2284 1.43831 15.2284H4.35807C4.82103 15.2284 5.1914 14.858 5.1914 14.3951ZM28.5618 13.5617H25.642C25.1852 13.5617 24.8087 13.9321 24.8087 14.3951C24.8087 14.8519 25.1791 15.2284 25.642 15.2284H28.5618C29.0186 15.2284 29.3951 14.858 29.3951 14.3951C29.3951 13.9383 29.0247 13.5617 28.5618 13.5617ZM6.88893 21.3333L4.82103 23.4012C4.49387 23.7284 4.49387 24.2531 4.82103 24.5802C4.98152 24.7407 5.19757 24.821 5.40745 24.821C5.61733 24.821 5.83338 24.7407 5.99387 24.5802L8.06177 22.5123C8.38893 22.1852 8.38893 21.6605 8.06177 21.3333C7.74078 21.0062 7.20992 21.0062 6.88893 21.3333ZM22.5247 7.7037C22.7346 7.7037 22.9507 7.62346 23.1112 7.46296L25.1791 5.39506C25.5062 5.0679 25.5062 4.54321 25.1791 4.21605C24.8519 3.88889 24.3272 3.88889 24 4.21605L21.9321 6.28395C21.605 6.61111 21.605 7.1358 21.9321 7.46296C22.0988 7.62346 22.3087 7.7037 22.5247 7.7037ZM6.88893 7.45679C7.04943 7.61728 7.26547 7.69753 7.47535 7.69753C7.68523 7.69753 7.90128 7.61728 8.06177 7.45679C8.38893 7.12963 8.38893 6.60494 8.06177 6.27778L5.99387 4.20988C5.66671 3.88272 5.14202 3.88272 4.81486 4.20988C4.4877 4.53704 4.4877 5.06173 4.81486 5.38889L6.88893 7.45679ZM23.1112 21.3333C22.784 21.0062 22.2593 21.0062 21.9321 21.3333C21.605 21.6605 21.605 22.1852 21.9321 22.5123L24 24.5802C24.1605 24.7407 24.3766 24.821 24.5865 24.821C24.7963 24.821 25.0124 24.7407 25.1729 24.5802C25.5 24.2531 25.5 23.7284 25.1729 23.4012L23.1112 21.3333Z" fill="white"/>
</svg>
