<svg width="21" height="21" viewBox="0 0 21 21" fill="none" xmlns="http://www.w3.org/2000/svg">
<path fill-rule="evenodd" clip-rule="evenodd" d="M10.7639 0.865784C16.1894 0.883037 20.598 5.30215 20.598 10.7315C20.598 11.5022 20.5339 12.1261 20.3902 12.7523L20.3881 12.7627C20.3881 12.7627 20.3164 13.0532 20.277 13.1792C20.0332 13.959 19.5917 14.6085 19.0003 15.0575C18.4267 15.4929 17.7155 15.7328 16.9979 15.7328C16.9092 15.7328 16.8199 15.7292 16.7325 15.7222C15.7133 15.6403 14.8171 15.104 14.2676 14.2488C13.3225 15.1991 12.0686 15.722 10.7321 15.722C7.9804 15.722 5.74172 13.4833 5.74172 10.7315C5.74172 7.97987 7.9804 5.74125 10.7321 5.74125C13.4837 5.74125 15.7224 7.97987 15.7224 10.7315V12.3402C15.7266 13.2789 16.3564 13.6626 16.8945 13.706C17.4299 13.7473 18.1424 13.4354 18.3906 12.4176C18.513 11.8594 18.5752 11.292 18.5752 10.7315C18.5752 6.4068 15.0568 2.88841 10.7321 2.88841C6.40733 2.88841 2.88895 6.4068 2.88895 10.7315C2.88895 15.0563 6.40733 18.5748 10.7321 18.5748C12.2375 18.5748 13.7016 18.1448 14.9661 17.3313L14.9887 17.3167L16.3178 18.862L16.2893 18.8815C14.6468 20.0041 12.7251 20.5975 10.7321 20.5975C5.29199 20.5975 0.866211 16.1716 0.866211 10.7315C0.866211 5.29151 5.29199 0.865723 10.7321 0.865723L10.7639 0.865784ZM10.7321 13.1981C12.0943 13.1981 13.1986 12.0938 13.1986 10.7316C13.1986 9.36942 12.0943 8.26514 10.7321 8.26514C9.3699 8.26514 8.26563 9.36942 8.26563 10.7316C8.26563 12.0938 9.3699 13.1981 10.7321 13.1981Z" fill="white"/>
</svg>
