<svg width="10" height="12" viewBox="0 0 10 12" fill="none" xmlns="http://www.w3.org/2000/svg">
<path d="M4.83904 0C2.50679 0 0.609375 1.94958 0.609375 4.34592C0.609375 7.31986 4.39451 11.6858 4.55567 11.8702C4.70704 12.0434 4.97132 12.0431 5.12241 11.8702C5.28357 11.6858 9.06871 7.31986 9.06871 4.34592C9.06866 1.94958 7.17127 0 4.83904 0ZM4.83904 6.53248C3.66563 6.53248 2.71101 5.55159 2.71101 4.34592C2.71101 3.14025 3.66565 2.15939 4.83904 2.15939C6.01243 2.15939 6.96705 3.14027 6.96705 4.34595C6.96705 5.55162 6.01243 6.53248 4.83904 6.53248Z" fill="white"/>
</svg>
