<svg width="16" height="30" viewBox="0 0 16 30" fill="none" xmlns="http://www.w3.org/2000/svg">
<path d="M8.36311 7.09961H7.63683C3.6214 7.09961 0.366455 10.3547 0.366455 14.37V22.7296C0.366455 26.7448 3.6213 29.9999 7.63683 29.9999H8.36311C12.3786 29.9999 15.6335 26.7448 15.6335 22.7296V14.37C15.6335 10.3547 12.3787 7.09961 8.36311 7.09961ZM9.9084 14.5943C9.9084 15.648 9.05389 16.5025 7.99997 16.5025C6.9462 16.5025 6.09169 15.6481 6.09169 14.5943V11.569C6.09169 10.5152 6.9462 9.66074 7.99997 9.66074C9.05389 9.66074 9.9084 10.5151 9.9084 11.569V14.5943Z" fill="white"/>
<path d="M9.14508 5.91196H6.85498V3.89505C6.85498 1.74735 8.60233 0 10.7502 0H13.0559V2.29H10.7502C9.86518 2.29 9.14508 3.01 9.14508 3.89505V5.91196Z" fill="white"/>
</svg>
