<svg width="30" height="30" viewBox="0 0 30 30" fill="none" xmlns="http://www.w3.org/2000/svg">
<g clip-path="url(#clip0)">
<path d="M14.923 23.6928C14.7268 23.9673 14.5085 24.2272 14.2678 24.4679C13.1004 25.6357 11.5482 26.2788 9.8973 26.2788C8.24637 26.2788 6.69428 25.6357 5.52691 24.4679C3.11731 22.0576 3.11731 18.1355 5.52691 15.7252C5.76938 15.4826 6.02807 15.2632 6.30053 15.0672C5.68453 14.0933 5.16428 13.1195 4.76578 12.182C4.75143 12.1482 4.73807 12.1147 4.724 12.0811C4.03477 12.4889 3.3968 12.9839 2.81654 13.5642C-0.935918 17.3179 -0.935918 23.4257 2.81654 27.1794C4.63441 28.9978 7.05141 29.9993 9.62232 29.9993C12.1932 29.9993 14.6102 28.9978 16.428 27.1794C17.0003 26.6069 17.4971 25.9633 17.9075 25.2699C17.8745 25.2562 17.8417 25.243 17.8086 25.229C16.871 24.8301 15.897 24.3094 14.923 23.6928Z" fill="white"/>
<path d="M23.3427 15.3732C21.9139 15.5408 20.6039 16.1602 19.6233 17.1411L19.5845 17.1801C19.104 17.6608 18.467 17.9249 17.7893 17.925C17.7893 17.925 17.789 17.925 17.7889 17.925C17.111 17.925 16.474 17.661 15.9949 17.1817L12.7318 13.9175C11.7433 12.9286 11.7434 11.3197 12.7319 10.331L12.9143 10.1485C13.8365 9.226 14.4302 7.99378 14.6132 6.64407C13.3636 5.8919 12.1352 5.32419 11.026 4.99471C8.44333 4.22755 7.08923 4.87864 6.40808 5.55997C5.22654 6.74186 5.19871 8.85798 6.32962 11.5185C7.3229 13.8553 9.15103 16.4543 11.3453 18.6492C13.5396 20.8442 16.1378 22.6729 18.4738 23.6665C19.7733 24.2193 20.9428 24.4954 21.9369 24.4953C22.9779 24.4953 23.8268 24.1926 24.4312 23.588C25.1135 22.9054 25.7649 21.5479 24.9926 18.9573C24.662 17.8484 24.0942 16.6212 23.3427 15.3732Z" fill="white"/>
<path d="M27.9279 1.92459C26.6186 0.650876 24.8848 -0.0325025 23.0446 0.00118889C21.2027 0.0346459 19.4922 0.781423 18.2279 2.10394C17.1308 3.25168 16.465 4.75619 16.3532 6.34033C16.2176 8.26285 15.423 10.0418 14.1159 11.3495L13.9337 11.5318C13.6068 11.8587 13.6068 12.3887 13.9336 12.7157L17.1969 15.9799C17.3539 16.137 17.5669 16.2253 17.7891 16.2253C18.0113 16.2252 18.2242 16.1369 18.3813 15.9798L18.4216 15.9393C19.7773 14.5832 21.6156 13.7678 23.5978 13.6433C25.2577 13.539 26.82 12.8332 27.997 11.6557C29.2999 10.3524 30.0103 8.61963 29.9975 6.77644C29.9847 4.93355 29.2497 3.21049 27.9279 1.92459Z" fill="white"/>
</g>
<defs>
<clipPath id="clip0">
<rect width="30" height="30" fill="white"/>
</clipPath>
</defs>
</svg>
