<svg width="11" height="19" viewBox="0 0 11 19" fill="none" xmlns="http://www.w3.org/2000/svg">
<path d="M5.36676 6.2803e-06C4.41606 -0.00151557 3.48629 0.287137 2.69519 0.829416C1.90409 1.3717 1.28723 2.14321 0.922728 3.04628C0.558224 3.94934 0.462464 4.94334 0.647575 5.90241C0.832687 6.86148 1.29034 7.74249 1.96259 8.43389C2.63485 9.12529 3.49146 9.59598 4.42397 9.78637C5.35649 9.97675 6.32296 9.87826 7.20101 9.50338C8.07907 9.12849 8.82922 8.49407 9.35648 7.68043C9.88375 6.8668 10.1644 5.91055 10.1629 4.93277C10.1629 4.28499 10.0389 3.64355 9.79784 3.04508C9.55681 2.44661 9.20353 1.90283 8.75816 1.44478C8.3128 0.98673 7.78407 0.623385 7.20218 0.375491C6.62028 0.127596 5.9966 6.2803e-06 5.36676 6.2803e-06ZM5.36676 6.92588C4.83493 6.92588 4.32489 6.7086 3.94883 6.32183C3.57277 5.93506 3.3615 5.41049 3.3615 4.86351C3.3615 4.31654 3.57277 3.79196 3.94883 3.40519C4.32489 3.01842 4.83493 2.80114 5.36676 2.80114C5.63178 2.79482 5.89528 2.84385 6.14135 2.94526C6.38741 3.04667 6.61093 3.19835 6.79837 3.39113C6.98581 3.58391 7.1333 3.81379 7.2319 4.06686C7.33049 4.31994 7.37817 4.59095 7.37202 4.86351C7.37301 5.13463 7.32182 5.40327 7.2214 5.65395C7.12097 5.90463 6.9733 6.13239 6.7869 6.3241C6.6005 6.51581 6.37905 6.66768 6.13531 6.77097C5.89157 6.87425 5.63037 6.9269 5.36676 6.92588ZM7.2972 13.8518C8.31662 13.6138 9.2869 13.1917 10.1629 12.6051C10.3432 12.4702 10.4896 12.293 10.5898 12.0882C10.69 11.8834 10.7412 11.657 10.7391 11.4277C10.7378 11.1606 10.6635 10.8993 10.5246 10.6736C10.3858 10.4478 10.188 10.2668 9.95385 10.1513C9.71972 10.0357 9.4587 9.99017 9.20062 10.0199C8.94254 10.0497 8.6978 10.1535 8.49437 10.3196C7.56538 10.8937 6.50296 11.1995 5.41914 11.2045C4.27059 11.1481 3.15082 10.816 2.14937 10.2349C1.91313 10.0868 1.64032 10.012 1.36372 10.0194C1.00256 10.0194 0.656183 10.167 0.400799 10.4297C0.145415 10.6923 0.0019424 11.0486 0.0019424 11.42C-0.011184 11.659 0.0424249 11.8968 0.156443 12.1054C0.270461 12.314 0.44013 12.4847 0.645422 12.5974C1.49755 13.1681 2.44709 13.5676 3.44381 13.7748L0.795067 16.5682C0.666797 16.6985 0.564953 16.8537 0.495443 17.0248C0.425932 17.1958 0.390138 17.3794 0.390138 17.5648C0.390138 17.7502 0.425932 17.9338 0.495443 18.1048C0.564953 18.2759 0.666797 18.4311 0.795067 18.5614C0.925684 18.699 1.08156 18.8087 1.25366 18.884C1.42576 18.9593 1.61068 18.9987 1.7977 19C2.17494 18.9949 2.53509 18.8373 2.80033 18.5614L5.36676 15.8372L8.0155 18.5614C8.27636 18.804 8.61801 18.9341 8.96962 18.9247C9.32123 18.9153 9.65584 18.7671 9.90407 18.5108C10.1523 18.2545 10.2951 17.9098 10.3029 17.5481C10.3107 17.1865 10.1829 16.8356 9.94594 16.5682L7.2972 13.8518Z" fill="white"/>
</svg>
