<svg width="20" height="20" viewBox="0 0 20 20" fill="none" xmlns="http://www.w3.org/2000/svg">
<path d="M17.3044 2.61997C15.5663 0.930342 13.2554 -9.45014e-05 10.7975 7.19903e-09C10.3947 7.19903e-09 10.0684 0.31736 10.0684 0.708814C10.0684 1.10027 10.3948 1.41763 10.7975 1.41763C12.8659 1.41753 14.8106 2.20054 16.2732 3.62242C17.7359 5.0443 18.5414 6.93485 18.5413 8.94571C18.5413 9.33716 18.8676 9.65452 19.2704 9.65452C19.6731 9.65452 19.9996 9.33716 19.9996 8.9458C19.9997 6.55615 19.0425 4.30959 17.3044 2.61997Z" fill="white"/>
<path d="M14.305 8.94547C14.305 9.33692 14.6315 9.65428 15.0342 9.65419C15.4369 9.65419 15.7633 9.33683 15.7633 8.94538C15.7631 6.28402 13.5354 4.11854 10.7976 4.11816C10.7975 4.11816 10.7976 4.11816 10.7975 4.11816C10.3948 4.11816 10.0685 4.43543 10.0684 4.82688C10.0684 5.21834 10.3947 5.5357 10.7974 5.53579C12.7314 5.53608 14.3048 7.0656 14.305 8.94547Z" fill="white"/>
<path d="M12.6919 12.5598C11.5805 12.5039 11.0143 13.3074 10.7428 13.6934C10.5154 14.0165 10.6005 14.4576 10.9329 14.6786C11.2653 14.8997 11.719 14.8169 11.9464 14.4938C12.2672 14.0378 12.4126 13.966 12.6097 13.9751C13.2408 14.0472 15.7262 15.8177 15.975 16.3714C16.0374 16.5344 16.0351 16.6942 15.9681 16.8886C15.7072 17.6415 15.2753 18.1705 14.7188 18.4185C14.1901 18.6541 13.542 18.6328 12.8448 18.357C10.2416 17.3255 7.9673 15.8861 6.08516 14.0785C6.08438 14.0777 6.0836 14.0771 6.08292 14.0763C4.22742 12.2484 2.74942 10.0403 1.69013 7.51355C1.40635 6.83526 1.38438 6.20508 1.62675 5.69124C1.88185 5.15027 2.42607 4.73037 3.19983 4.47699C3.40049 4.41159 3.56459 4.40951 3.73074 4.46962C4.30228 4.71241 6.12346 7.12843 6.19696 7.73499C6.20746 7.93383 6.13309 8.07503 5.6644 8.38634C5.33191 8.60711 5.24646 9.04818 5.47366 9.3714C5.70076 9.69462 6.15438 9.7776 6.48696 9.55683C6.88419 9.29315 7.71054 8.74424 7.65319 7.66014C7.58999 6.52773 5.32404 3.52888 4.24132 3.14187C3.7598 2.96741 3.2533 2.96438 2.73532 3.13336C1.56987 3.5149 0.728162 4.19517 0.301181 5.10056C-0.112967 5.97892 -0.0998428 6.99801 0.339582 8.04819C1.47324 10.7523 3.05935 13.1183 5.05377 15.0808C5.05863 15.0856 5.06359 15.0903 5.06865 15.0949C7.08592 17.0302 9.51695 18.5693 12.2949 19.67C12.8511 19.8899 13.399 20 13.9229 20C14.4161 20 14.8884 19.9025 15.3265 19.7072C16.2579 19.2923 16.9576 18.4741 17.3504 17.3404C17.5238 16.8378 17.521 16.3456 17.3429 15.8796C16.9434 14.8243 13.8586 12.6215 12.6919 12.5598Z" fill="white"/>
</svg>
