<svg width="33" height="34" viewBox="0 0 33 34" fill="none" xmlns="http://www.w3.org/2000/svg">
<path fill-rule="evenodd" clip-rule="evenodd" d="M11.2935 4.00256C11.9681 4.00256 12.57 4.21713 13.0325 4.57522C14.0912 3.75656 15.6629 3.81426 16.6845 4.75599C17.1982 5.22949 17.5299 5.88733 17.5299 6.62241C17.5299 7.6085 16.9944 8.58257 16.295 9.41391C15.2614 10.6424 13.7327 11.635 13.2682 11.75C13.0398 11.8059 12.8106 11.7777 12.613 11.6844C12.0009 11.4216 10.6935 10.5191 9.77411 9.42632C9.07284 8.59221 8.53556 7.61338 8.53556 6.62188C8.53556 5.15291 9.85545 4.00256 11.2935 4.00256ZM13.5583 29.5786C13.0119 29.5786 12.5696 29.1359 12.5696 28.5899C12.5696 28.0439 13.0119 27.6011 13.5583 27.6011H20.2835C20.8299 27.6011 21.2722 28.0439 21.2722 28.5899C21.2722 29.1359 20.8299 29.5786 20.2835 29.5786H13.5583ZM13.5583 25.6237C13.0119 25.6237 12.5696 25.1807 12.5696 24.6348C12.5696 24.0887 13.0119 23.6461 13.5583 23.6461H16.0632C16.6093 23.6461 17.0519 24.0887 17.0519 24.6348C17.0519 25.1807 16.6093 25.6237 16.0632 25.6237H13.5583ZM5.77997 23.6458H9.60325C10.1492 23.6458 10.592 24.0887 10.592 24.6346V28.5897C10.592 29.1359 10.1492 29.5785 9.60325 29.5785H5.77997C5.23371 29.5785 4.79124 29.1359 4.79124 28.5897V24.6346C4.79124 24.0887 5.23371 23.6458 5.77997 23.6458ZM8.61439 25.6237H6.7687V27.6011H8.61439V25.6237ZM13.5583 20.2184C13.0119 20.2184 12.5696 19.7757 12.5696 19.2295C12.5696 18.6834 13.0119 18.2408 13.5583 18.2408H20.2835C20.8299 18.2408 21.2722 18.6834 21.2722 19.2295C21.2722 19.7757 20.8299 20.2184 20.2835 20.2184H13.5583ZM13.5583 16.2632C13.0119 16.2632 12.5696 15.8206 12.5696 15.2745C12.5696 14.7285 13.0119 14.2857 13.5583 14.2857H16.0632C16.6093 14.2857 17.0519 14.7285 17.0519 15.2745C17.0519 15.8206 16.6093 16.2632 16.0632 16.2632H13.5583ZM5.77997 14.2857H9.60325C10.1492 14.2857 10.592 14.7285 10.592 15.2745V19.2295C10.592 19.7757 10.1492 20.2184 9.60325 20.2184H5.77997C5.23371 20.2184 4.79124 19.7757 4.79124 19.2295V15.2745C4.79124 14.7285 5.23371 14.2857 5.77997 14.2857ZM8.61439 16.2632H6.7687V18.2408H8.61439V16.2632ZM30.9623 15.5384H25.2279V28.9525C25.2176 30.5102 26.5143 31.8199 28.0948 31.8199C29.67 31.8199 30.9623 30.5275 30.9623 28.9525V15.5384ZM25.2279 13.5606V1.03623C25.2279 0.490101 24.7849 0.0473633 24.2389 0.0473633H1.82662C1.28036 0.0473633 0.837891 0.490101 0.837891 1.03623V29.0514C0.837891 31.6666 2.96852 33.7974 5.58375 33.7974H28.0948C30.7613 33.7974 32.9397 31.6191 32.9397 28.9525V14.5497C32.9397 14.0034 32.4974 13.5608 31.951 13.5608L25.2279 13.5606ZM24.1948 31.8199C23.6017 31.016 23.25 30.0237 23.25 28.9525L23.2502 2.02496H2.81536V29.0514C2.81536 30.575 4.06025 31.8199 5.58375 31.8199H24.1948ZM11.8311 6.13966C11.5377 5.91519 11.0343 5.91598 10.7172 6.20832C10.5932 6.32241 10.513 6.46937 10.513 6.62241C10.513 7.71268 12.3446 9.31079 13.0305 9.72065C13.7037 9.31343 15.5523 7.70846 15.5523 6.62241C15.5523 6.26853 15.1445 5.98002 14.7718 5.98002C14.3989 5.98002 14.0706 6.16145 14.0005 6.50489C13.9283 6.88742 13.6311 7.20683 13.2258 7.28777C12.6925 7.39419 12.1736 7.04824 12.067 6.51532C12.0371 6.36572 11.9537 6.23368 11.8311 6.13966Z" fill="white"/>
</svg>
