<svg width="30" height="30" viewBox="0 0 30 30" fill="none" xmlns="http://www.w3.org/2000/svg">
<path d="M14.2222 10.5222C14.2087 10.2742 14.1772 10.0334 14.1292 9.80078C14.3258 9.91536 14.5373 9.97961 14.7545 9.97961H14.947C15.1642 9.97961 15.3757 9.91536 15.572 9.80078C15.524 10.0334 15.4926 10.2742 15.4791 10.5222H14.2222Z" fill="white"/>
<path d="M14.033 10.5225H15.6685C15.7147 11.5402 16.0221 12.5281 16.5637 13.3949L16.604 13.4595C16.8729 13.8896 17.0149 14.3849 17.0149 14.8919C17.0149 15.3502 16.8972 15.8041 16.6749 16.2045L16.3535 16.7834C15.9452 17.5184 15.711 18.3413 15.6693 19.1791H14.0327C13.9909 18.341 13.7565 17.5181 13.3485 16.7834L13.0271 16.2045C12.8042 15.8038 12.6866 15.3502 12.6866 14.8919C12.6866 14.3849 12.8286 13.8896 13.0975 13.4595L13.1378 13.3949C13.6796 12.5281 13.9867 11.5402 14.033 10.5225Z" fill="white"/>
<path d="M23.4025 13.1946C27.0404 13.1946 29.9998 10.2353 29.9998 6.59729C29.9998 2.95933 27.0404 0 23.4025 0C19.7645 0 16.8052 2.95933 16.8052 6.59729C16.8052 10.2353 19.7645 13.1946 23.4025 13.1946ZM23.4025 1.09955C26.434 1.09955 28.9002 3.56575 28.9002 6.59729C28.9002 9.62884 26.434 12.095 23.4025 12.095C20.3709 12.095 17.9047 9.62884 17.9047 6.59729C17.9047 3.56575 20.3709 1.09955 23.4025 1.09955Z" fill="white"/>
<path d="M27.8008 6.59741C27.8008 9.02657 25.8317 10.9956 23.4026 10.9956C20.9734 10.9956 19.0044 9.02657 19.0044 6.59741C19.0044 4.16826 20.9734 2.19922 23.4026 2.19922C25.8317 2.19922 27.8008 4.16826 27.8008 6.59741Z" fill="white"/>
<path d="M23.4025 30.0003C27.0404 30.0003 29.9998 27.0409 29.9998 23.403C29.9998 19.765 27.0404 16.8057 23.4025 16.8057C19.7645 16.8057 16.8052 19.765 16.8052 23.403C16.8052 27.0409 19.7645 30.0003 23.4025 30.0003ZM23.4025 17.9052C26.434 17.9052 28.9002 20.3714 28.9002 23.403C28.9002 26.4345 26.434 28.9007 23.4025 28.9007C20.3709 28.9007 17.9047 26.4345 17.9047 23.403C17.9047 20.3714 20.3709 17.9052 23.4025 17.9052Z" fill="white"/>
<path d="M27.8008 23.4031C27.8008 25.8322 25.8317 27.8013 23.4026 27.8013C20.9734 27.8013 19.0044 25.8322 19.0044 23.4031C19.0044 20.9739 20.9734 19.0049 23.4026 19.0049C25.8317 19.0049 27.8008 20.9739 27.8008 23.4031Z" fill="white"/>
<path d="M6.59729 16.8054C2.95933 16.8054 -4.70949e-06 19.7647 -4.39145e-06 23.4027C-4.07341e-06 27.0407 2.95933 30 6.59729 30C10.2352 30 13.1946 27.0407 13.1946 23.4027C13.1946 19.7647 10.2352 16.8054 6.59729 16.8054ZM6.59729 28.9005C3.56574 28.9005 1.09954 26.4343 1.09954 23.4027C1.09954 20.3712 3.56574 17.905 6.59729 17.905C9.62883 17.905 12.095 20.3712 12.095 23.4027C12.095 26.4343 9.62883 28.9005 6.59729 28.9005Z" fill="white"/>
<path d="M2.19897 23.4026C2.19897 20.9734 4.16801 19.0044 6.59716 19.0044C9.02632 19.0044 10.9954 20.9734 10.9954 23.4026C10.9954 25.8317 9.02632 27.8008 6.59717 27.8008C4.16801 27.8008 2.19897 25.8317 2.19897 23.4026Z" fill="white"/>
<path d="M6.59729 -0.000251193C2.95933 -0.000250875 -4.70949e-06 2.95908 -4.39145e-06 6.59704C-4.07341e-06 10.235 2.95933 13.1943 6.59729 13.1943C10.2352 13.1943 13.1946 10.235 13.1946 6.59704C13.1946 2.95908 10.2352 -0.000251511 6.59729 -0.000251193ZM6.59729 12.0948C3.56574 12.0948 1.09954 9.62859 1.09954 6.59704C1.09954 3.5655 3.56574 1.0993 6.59729 1.0993C9.62883 1.0993 12.095 3.5655 12.095 6.59704C12.095 9.62859 9.62883 12.0948 6.59729 12.0948Z" fill="white"/>
<path d="M2.19897 6.59692C2.19897 4.16777 4.16801 2.19873 6.59716 2.19873C9.02632 2.19873 10.9954 4.16777 10.9954 6.59692C10.9954 9.02608 9.02632 10.9951 6.59717 10.9951C4.16801 10.9951 2.19897 9.02608 2.19897 6.59692Z" fill="white"/>
<path d="M15.4791 19.1797C15.4926 19.4277 15.524 19.6685 15.572 19.9011C15.3755 19.7865 15.1642 19.7223 14.9468 19.7223H14.7543C14.5371 19.7223 14.3256 19.7865 14.1292 19.9011C14.1772 19.6685 14.2087 19.4277 14.2222 19.1797H15.4791Z" fill="white"/>
</svg>
