<svg width="16" height="16" viewBox="0 0 16 16" fill="none" xmlns="http://www.w3.org/2000/svg">
<g clip-path="url(#clip0)">
<path d="M11.5646 1.98419C10.2851 0.704656 8.58394 0 6.77441 0C4.96488 0 3.26369 0.704656 1.98419 1.98419C0.704656 3.26369 0 4.96487 0 6.77437C0 8.58391 0.704656 10.2851 1.98419 11.5646C3.26369 12.8441 4.96491 13.5488 6.77441 13.5488C8.58391 13.5488 10.2851 12.8441 11.5646 11.5646C12.8441 10.2851 13.5488 8.58391 13.5488 6.77437C13.5488 4.96487 12.8441 3.26369 11.5646 1.98419ZM6.77437 12.2561C3.75172 12.2561 1.29262 9.79703 1.29262 6.77437C1.29262 3.75172 3.75175 1.29262 6.77441 1.29262C9.79706 1.29262 12.2561 3.75172 12.2561 6.77437C12.2561 9.79703 9.79703 12.2561 6.77437 12.2561Z" fill="white"/>
<path d="M15.8111 14.8971L11.5623 10.6483C11.3099 10.3959 10.9007 10.3959 10.6483 10.6483C10.3959 10.9007 10.3959 11.3099 10.6483 11.5623L14.897 15.8111C15.0232 15.9373 15.1887 16.0004 15.3541 16.0004C15.5195 16.0004 15.6849 15.9373 15.8111 15.8111C16.0635 15.5587 16.0635 15.1495 15.8111 14.8971Z" fill="white"/>
</g>
<defs>
<clipPath id="clip0">
<rect width="16" height="16" fill="white"/>
</clipPath>
</defs>
</svg>
