<svg width="30" height="26" viewBox="0 0 30 26" fill="none" xmlns="http://www.w3.org/2000/svg">
<path d="M28.4941 19.6699C28.0341 20.0376 27.392 20.406 26.5863 20.7529C25.5601 19.2096 24.6692 17.5605 24.0064 15.8278C23.5097 14.5295 23.0363 13.0549 23.1761 11.6452C23.2574 10.8268 23.8218 9.70751 24.8343 9.90928C25.2443 9.99107 25.5577 10.3347 25.8961 10.5552C26.4287 10.9027 27.0341 11.0027 27.6608 10.9182C28.8889 8.01531 27.7948 4.75524 25.9769 3.05265L25.5172 0.90332C24.0767 0.932862 22.4698 1.15821 21.3755 2.18689C20.6148 2.90219 20.2558 3.88981 19.9018 4.8456C19.5483 5.79992 19.146 6.75518 18.3649 7.439C18.7722 8.04632 19.0082 8.76176 19.0082 9.52744C19.0082 11.719 17.08 13.502 14.7098 13.502C12.3396 13.502 10.4113 11.719 10.4113 9.52744C10.4113 9.36345 10.4234 9.20214 10.4443 9.04325C6.79613 7.3761 3.64365 10.3468 3.37824 10.5586L5.3195 12.5951C6.78287 10.9902 8.50729 10.693 8.61434 10.6854C5.56769 13.5086 3.75545 18.5747 3.11752 20.621C2.44944 20.3132 1.90797 19.9913 1.50584 19.6698L0 21.5534C1.54014 22.7848 3.50056 23.4722 5.38415 23.9694C7.94485 24.6454 10.5999 24.9606 13.2427 25.0613C16.065 25.1688 18.9088 25.0335 21.6986 24.5817C23.9301 24.2204 26.19 23.6705 28.2241 22.6597C28.8489 22.3491 29.4542 21.9899 30 21.5534L28.4941 19.6699ZM14.4526 22.6797C11.4675 22.6428 8.44318 22.3304 5.56562 21.5073C7.61045 18.3741 10.9765 16.0501 14.8376 16.2833C18.3919 16.498 21.5224 18.7768 23.5317 21.6153C23.558 21.6525 23.5839 21.6896 23.6098 21.7271C20.626 22.4674 17.5205 22.7176 14.4526 22.6797Z" fill="white"/>
</svg>
