<svg width="20" height="12" viewBox="0 0 20 12" fill="none" xmlns="http://www.w3.org/2000/svg">
<path d="M19.2962 1.112C19.4482 0.647995 19.2962 0.311995 18.6802 0.311995H16.6002C16.4004 0.304226 16.2033 0.359548 16.0367 0.470115C15.8701 0.580681 15.7426 0.740881 15.6722 0.927996C15.0132 2.48423 14.132 3.93668 13.0562 5.24C12.5922 5.704 12.3602 5.856 12.0562 5.856C11.8962 5.856 11.7442 5.704 11.7442 5.24V1.08C11.7442 0.543996 11.5922 0.279996 11.1282 0.279996H7.81617C7.68336 0.273104 7.55295 0.31736 7.45177 0.403664C7.35059 0.489968 7.28631 0.61176 7.27217 0.743996C7.27217 1.28 8.07217 1.36 8.12017 2.824V6C8.12017 6.696 7.96817 6.8 7.73617 6.8C7.04817 6.8 5.27217 4.184 4.27217 1.2C4.04017 0.583996 3.88817 0.351996 3.34417 0.351996H1.26417C0.648172 0.351996 0.576172 0.663995 0.576172 0.967995C0.576172 1.512 1.26417 4.27999 3.88817 7.98399C5.65617 10.448 8.04817 11.832 10.2882 11.832C11.6002 11.832 11.8322 11.528 11.8322 10.984V9.064C11.8322 8.44 11.9842 8.36799 12.3682 8.36799C12.7522 8.36799 13.2162 8.52 14.4482 9.752C15.9122 11.216 16.1442 11.832 16.9122 11.832H18.9922C19.6082 11.832 19.9202 11.528 19.6882 10.912C19.2715 9.97521 18.667 9.13386 17.9122 8.43999C17.4562 7.824 16.6802 7.20799 16.4482 6.904C16.3852 6.84421 16.3351 6.77224 16.3009 6.69247C16.2666 6.6127 16.249 6.5268 16.249 6.43999C16.249 6.35319 16.2666 6.26729 16.3009 6.18752C16.3351 6.10775 16.3852 6.03578 16.4482 5.976C16.4402 6 19.0642 2.344 19.2962 1.112Z" fill="white"/>
</svg>
