<svg width="70" height="70" viewBox="0 0 70 70" fill="none" xmlns="http://www.w3.org/2000/svg">
<path d="M29.9719 24.4251L24.2387 54.7066H24.234L0 58.3206L32.3349 70L61.1217 66.1069L70 28.3754L29.9719 24.4251ZM24.2861 65.4437L16.3511 62.3974L20.174 61.8798L29.0784 64.8759L24.2861 65.4437ZM58.4933 62.9389L26.4689 53.8239L31.612 27.0873L65.9685 31.1522L58.4933 62.9389ZM20.2285 22.4499H24.0444V26.1045H20.2285V22.4499ZM21.2216 17.3163H17.3892C17.4248 16.7414 17.5409 16.1665 17.7376 15.6059C17.9319 15.0501 18.2306 14.5491 18.6335 14.103C19.0388 13.6617 19.5554 13.3015 20.1859 13.0295C20.8163 12.7504 21.5842 12.6097 22.4872 12.6097C23.3784 12.6097 24.132 12.729 24.7435 12.9723C25.355 13.2108 25.8503 13.521 26.2296 13.8931C26.6088 14.27 26.8884 14.6827 27.0638 15.1312C27.2416 15.5796 27.3411 16.009 27.3672 16.4146C27.3672 16.9799 27.2914 17.4403 27.1468 17.7886C27.0022 18.1369 26.8079 18.4327 26.5685 18.6665C26.3291 18.9026 26.066 19.0935 25.7721 19.2485C25.4782 19.4012 25.1772 19.5563 24.8739 19.7185C24.6653 19.8306 24.4947 19.9403 24.3596 20.0501C24.2245 20.1622 24.1178 20.2767 24.0467 20.3983C23.9756 20.5224 23.9235 20.6631 23.8903 20.8253C23.8595 20.9828 23.8453 21.1665 23.8453 21.374H20.4513C20.4395 21.1927 20.4324 20.9637 20.4324 20.6774C20.4324 20.384 20.4703 20.0811 20.5438 19.7757C20.6149 19.468 20.7428 19.1627 20.9277 18.8692C21.1126 18.5782 21.3804 18.3301 21.7359 18.1297C21.8805 18.0534 22.0535 17.9747 22.2502 17.8888C22.4469 17.8077 22.6318 17.7123 22.8095 17.6025C22.9826 17.5 23.1342 17.3735 23.2575 17.2304C23.3784 17.0825 23.44 16.9036 23.44 16.6937C23.44 16.0615 23.0892 15.749 22.3782 15.749C21.9374 15.749 21.6245 15.9088 21.442 16.2285C21.2572 16.5505 21.1837 16.9131 21.2216 17.3163ZM42.5214 44.6875L46.7899 47.593L44.0454 51.6841L39.7721 48.7786L42.5214 44.6875ZM55.6729 39.6732C55.8175 40.3817 55.8175 41.0568 55.6777 41.6985C55.5331 42.3354 55.3269 42.8912 55.0472 43.3611C54.623 44.0005 54.2011 44.4537 53.7698 44.7328C53.336 45.0143 52.9094 45.1932 52.4567 45.2767C52.0159 45.365 51.5751 45.3745 51.1271 45.3268C50.6816 45.2767 50.2265 45.2218 49.7667 45.1741C49.4515 45.1336 49.1789 45.1288 48.9396 45.1527C48.7049 45.1741 48.5035 45.2218 48.3281 45.3029C48.1527 45.3888 47.9844 45.5033 47.8327 45.6584C47.6834 45.811 47.527 46.0067 47.3658 46.2381L43.5642 43.6569C43.6899 43.4399 43.8558 43.1798 44.0738 42.8554C44.2966 42.5262 44.5644 42.2161 44.8749 41.9298C45.1901 41.6388 45.5598 41.4003 45.9865 41.2094C46.4202 41.0138 46.906 40.9446 47.4488 40.9947C47.6621 41.0234 47.9157 41.0615 48.1977 41.1164C48.4798 41.1713 48.7618 41.2047 49.0367 41.2237C49.314 41.2428 49.5795 41.2142 49.8236 41.1402C50.0701 41.0687 50.2739 40.916 50.4351 40.687C50.902 39.9785 50.7503 39.3583 49.954 38.8192C49.4633 38.4852 48.9917 38.4279 48.5414 38.6498C48.0958 38.8645 47.7403 39.2199 47.482 39.6994L43.1874 36.7748C43.6638 36.1617 44.2231 35.6059 44.863 35.1312C45.5053 34.6517 46.2092 34.3201 46.9961 34.1293C47.7782 33.9408 48.6267 33.9313 49.5416 34.1006C50.454 34.2676 51.421 34.697 52.4354 35.384C53.4356 36.0663 54.1845 36.7748 54.6894 37.5095C55.1966 38.2395 55.5189 38.9647 55.6729 39.6732ZM2.58338 46.5625L0.426613 46.3883L0.609108 44.1102L2.76587 44.2843L2.58338 46.5625ZM6.62197 45.8874C6.6433 45.625 6.56509 45.4294 6.38497 45.3006C6.20484 45.1741 5.99391 45.1145 5.74979 45.1169L5.93939 42.8244C6.27831 42.8745 6.60538 42.9723 6.93008 43.1178C7.24767 43.2609 7.52971 43.4661 7.77383 43.7285C8.0132 43.9861 8.20044 44.3153 8.33316 44.7066C8.46589 45.0954 8.51329 45.5606 8.46826 46.1045C8.4256 46.6388 8.3142 47.0801 8.1483 47.438C7.97528 47.7886 7.76909 48.0773 7.52971 48.2824C7.28796 48.4971 7.02963 48.6402 6.75707 48.7261C6.48451 48.8096 6.22854 48.8549 5.98443 48.8502C5.65025 48.8168 5.3848 48.7524 5.18571 48.6498C4.98426 48.5472 4.82309 48.4136 4.69274 48.2633C4.56949 48.1107 4.46521 47.9389 4.387 47.7552C4.31116 47.5692 4.23531 47.3879 4.15473 47.2018C4.10022 47.0658 4.04334 46.9585 3.98409 46.875C3.92483 46.7819 3.86084 46.7175 3.79211 46.6698C3.72101 46.615 3.64043 46.5768 3.55036 46.5482C3.45556 46.5243 3.34654 46.5052 3.22329 46.4981L3.38683 44.468C3.49822 44.468 3.63569 44.4728 3.80396 44.4871C3.97935 44.5014 4.15473 44.5372 4.33249 44.5992C4.51024 44.6589 4.68089 44.7471 4.84679 44.8735C5.0127 45.0024 5.14542 45.167 5.24259 45.3912C5.28051 45.4842 5.32081 45.5868 5.3611 45.7132C5.40139 45.8325 5.45116 45.9518 5.5033 46.0615C5.55781 46.1784 5.62654 46.2714 5.70713 46.3502C5.78534 46.4313 5.88725 46.4814 6.01287 46.4909C6.38497 46.5124 6.58642 46.3168 6.62197 45.8874ZM59.529 15.6941L60.131 17.7886L57.9435 18.4231L57.3438 16.3263L59.529 15.6941ZM54.8766 13.8573C54.8031 13.521 54.7747 13.1727 54.7984 12.8196C54.8173 12.4666 54.9098 12.1302 55.0615 11.8082C55.2226 11.4885 55.4596 11.1975 55.7796 10.9327C56.0901 10.6703 56.5119 10.4627 57.0239 10.3125C57.5334 10.1646 57.9837 10.1097 58.3724 10.1431C58.7611 10.1789 59.1024 10.2767 59.3797 10.427C59.6547 10.5772 59.8845 10.7681 60.0576 10.9995C60.2282 11.2285 60.3586 11.4551 60.4415 11.6817C60.5339 12.0085 60.5695 12.2829 60.5387 12.5095C60.5102 12.7337 60.451 12.9317 60.3538 13.1059C60.2566 13.2824 60.1358 13.4327 59.9912 13.5734C59.8443 13.7094 59.7044 13.8454 59.5527 13.9909C59.4508 14.0863 59.3679 14.1793 59.3086 14.2676C59.2517 14.3487 59.2067 14.4346 59.1877 14.5157C59.164 14.5992 59.1546 14.6898 59.164 14.7877C59.1735 14.8831 59.1925 14.9904 59.228 15.1097L57.2846 15.6727C57.2467 15.5701 57.2064 15.4365 57.159 15.2767C57.1092 15.1049 57.0808 14.926 57.0713 14.7352C57.0665 14.5491 57.0902 14.3535 57.1447 14.1555C57.1993 13.9527 57.3154 13.7714 57.4884 13.5997C57.5619 13.5305 57.6448 13.4565 57.742 13.3731C57.8392 13.2919 57.9269 13.2108 58.0146 13.1202C58.0975 13.0295 58.1615 12.9341 58.2089 12.8268C58.2563 12.7242 58.2587 12.6121 58.2279 12.4904C58.126 12.1302 57.8724 12.0109 57.4647 12.1254C57.2158 12.2018 57.0618 12.3473 57.0073 12.5596C56.9575 12.7719 56.9694 12.9938 57.0618 13.218L54.8766 13.8573ZM42.7039 20.6107L44.024 20.7419L43.8984 22.0086L42.5807 21.875L42.7039 20.6107ZM43.2253 18.8716L41.8957 18.7428C41.9242 18.5424 41.9858 18.3492 42.0687 18.1631C42.1564 17.9747 42.2773 17.8125 42.4314 17.6717C42.5783 17.5334 42.7774 17.4212 43.0049 17.3497C43.2348 17.2757 43.5003 17.2566 43.8155 17.2877C44.1236 17.3187 44.3796 17.3855 44.5786 17.488C44.7825 17.5882 44.9436 17.7147 45.0645 17.8578C45.1806 18.0009 45.2636 18.1536 45.311 18.3134C45.3584 18.4756 45.3702 18.6235 45.3702 18.7667C45.3513 18.9647 45.311 19.1173 45.2423 19.2342C45.1806 19.3535 45.1024 19.4465 45.0147 19.5229C44.9223 19.5897 44.8251 19.6469 44.7185 19.6922C44.6118 19.7352 44.4981 19.7781 44.3867 19.8258C44.3156 19.8592 44.2468 19.8878 44.1971 19.9236C44.1473 19.9594 44.1094 19.9928 44.0809 20.0334C44.0477 20.0739 44.0288 20.1216 44.0146 20.1765C43.9932 20.2337 43.9837 20.2958 43.979 20.3649L42.8082 20.2528C42.8082 20.186 42.8129 20.1049 42.8272 20.0071C42.8366 19.9022 42.8603 19.802 42.8911 19.697C42.922 19.592 42.9836 19.4919 43.0547 19.3964C43.1282 19.2986 43.2301 19.2247 43.3604 19.165C43.4126 19.1483 43.4789 19.1245 43.5453 19.0982C43.6188 19.0768 43.6875 19.0505 43.7491 19.0219C43.8107 18.9909 43.8724 18.9527 43.915 18.9026C43.9648 18.8573 43.9909 18.7977 43.9956 18.7261C44.0169 18.5114 43.9032 18.3898 43.6567 18.3635C43.505 18.3492 43.3889 18.3969 43.313 18.4995C43.2467 18.6021 43.2159 18.7285 43.2253 18.8716ZM35.7406 47.5191C35.788 47.6837 35.8046 47.8316 35.7999 47.9699C35.7809 48.1703 35.743 48.3206 35.679 48.4399C35.615 48.5568 35.5368 48.6546 35.4468 48.7214C35.3543 48.7929 35.2572 48.8549 35.1505 48.8955C35.0415 48.9432 34.9348 48.9814 34.8234 49.0315C34.7476 49.0601 34.6836 49.0911 34.6338 49.1269C34.5841 49.1674 34.5438 49.1937 34.513 49.2366C34.4845 49.2819 34.4608 49.3297 34.4466 49.3821C34.43 49.437 34.4181 49.5038 34.4087 49.5682L33.2355 49.4561C33.2379 49.3917 33.245 49.3082 33.2544 49.208C33.2639 49.1054 33.2853 49.0028 33.3232 48.9003C33.3564 48.7977 33.4109 48.6975 33.4843 48.5997C33.5602 48.5019 33.6597 48.4279 33.7901 48.3731C33.8446 48.3492 33.9062 48.3254 33.9749 48.3063C34.046 48.2824 34.1124 48.2562 34.1788 48.2299C34.2428 48.1965 34.2996 48.1632 34.347 48.1083C34.3921 48.0653 34.4181 48.0033 34.4276 47.9365C34.4466 47.7171 34.3352 47.5978 34.0911 47.5715C33.9347 47.5572 33.8233 47.6073 33.7474 47.7099C33.6739 47.8149 33.636 47.9437 33.636 48.0797L32.3088 47.9485C32.3372 47.7481 32.3988 47.5525 32.4842 47.3712C32.5695 47.1803 32.6951 47.0205 32.8468 46.8774C32.9985 46.7342 33.1905 46.6293 33.4203 46.5553C33.6455 46.4814 33.9157 46.4623 34.2285 46.4933C34.5414 46.5219 34.7974 46.5887 34.9964 46.6937C35.2026 46.7986 35.3614 46.9179 35.4799 47.0634C35.6008 47.2066 35.6861 47.3616 35.7406 47.5191ZM33.117 49.8187L34.4395 49.9523L34.3186 51.2118L32.9985 51.083L33.117 49.8187ZM8.07483 9.36303L6.74285 9.23183C6.77366 9.03383 6.83528 8.84299 6.9206 8.65454C7.01067 8.46847 7.12917 8.30387 7.28322 8.16074C7.43491 8.02238 7.62688 7.91265 7.85441 7.84108C8.08194 7.76713 8.35213 7.74805 8.66497 7.77667C8.97545 7.80768 9.23379 7.87448 9.43999 7.97944C9.64144 8.07963 9.80261 8.20368 9.92111 8.34919C10.0396 8.49232 10.1202 8.64261 10.1676 8.80482C10.2126 8.96704 10.2316 9.11494 10.2292 9.26522C10.2103 9.45845 10.1676 9.61351 10.106 9.73278C10.042 9.84729 9.96377 9.94032 9.87608 10.0167C9.78602 10.0835 9.68647 10.1407 9.57982 10.186C9.4708 10.229 9.36177 10.2767 9.25275 10.3196C9.17691 10.353 9.11292 10.3816 9.06552 10.4174C9.01337 10.4532 8.97071 10.4842 8.94227 10.5272C8.9162 10.5677 8.8925 10.6154 8.87591 10.6703C8.85932 10.7228 8.84747 10.7896 8.84036 10.854L7.6648 10.7442C7.66954 10.6798 7.67428 10.5987 7.68614 10.4985C7.69562 10.396 7.71695 10.2958 7.7525 10.1884C7.79042 10.0882 7.84256 9.98803 7.91603 9.89022C7.9895 9.79242 8.08905 9.72085 8.22177 9.66122C8.27391 9.64452 8.33553 9.62066 8.40427 9.59681C8.47537 9.57534 8.54173 9.54671 8.61046 9.5157C8.67445 9.48708 8.73134 9.44652 8.77874 9.39881C8.82614 9.35587 8.84984 9.29385 8.85695 9.22229C8.87828 9.00282 8.76926 8.88354 8.52277 8.8573C8.36872 8.84299 8.25495 8.88832 8.18148 8.99328C8.10801 9.09824 8.07246 9.22229 8.07483 9.36303ZM7.55578 11.1044L8.87591 11.2356L8.7503 12.5L7.43017 12.3688L7.55578 11.1044ZM10.8194 36.2929L7.52023 37.2471L6.61723 34.0887L9.91637 33.1345L10.8194 36.2929ZM2.88911 30.3626C2.77535 29.8497 2.74217 29.332 2.76587 28.8001C2.80142 28.2657 2.93415 27.76 3.17589 27.2757C3.40816 26.7915 3.77315 26.3454 4.24716 25.9494C4.72592 25.551 5.35636 25.2433 6.13848 25.0119C6.90875 24.7877 7.58896 24.7089 8.17674 24.7614C8.75978 24.8139 9.26697 24.957 9.68173 25.1884C10.1036 25.4174 10.4449 25.7085 10.708 26.0472C10.9711 26.3979 11.1678 26.7414 11.291 27.0825C11.4308 27.5739 11.4782 27.9914 11.4403 28.3277C11.4 28.6689 11.3052 28.9671 11.1559 29.2318C11.009 29.4919 10.8288 29.728 10.6108 29.9332C10.3951 30.1431 10.1771 30.353 9.95192 30.5653C9.80024 30.718 9.67699 30.854 9.5893 30.9852C9.50161 31.1116 9.43999 31.2357 9.40681 31.3645C9.37362 31.4909 9.36177 31.6245 9.376 31.77C9.38785 31.9131 9.4234 32.0801 9.47317 32.2614L6.53902 33.1083C6.48451 32.9532 6.42052 32.7528 6.35416 32.5071C6.27594 32.2519 6.23328 31.9823 6.22143 31.6961C6.20958 31.4122 6.24276 31.1212 6.3352 30.8182C6.41815 30.5152 6.59116 30.2385 6.8495 29.9809C6.96089 29.8759 7.08414 29.7638 7.23108 29.6374C7.38277 29.5181 7.52023 29.3893 7.64347 29.2533C7.77383 29.115 7.871 28.9694 7.93736 28.8096C8.0132 28.6522 8.01795 28.4876 7.96817 28.3039C7.81412 27.7648 7.43017 27.5787 6.81632 27.7576C6.43711 27.8626 6.20484 28.082 6.12426 28.4041C6.04842 28.7285 6.06975 29.0577 6.20484 29.4036L2.88911 30.3626ZM38.5989 8.39213L39.5019 11.5481L36.2028 12.5023L35.3022 9.34633L38.5989 8.39213ZM31.5741 5.62018C31.4627 5.1073 31.4248 4.58965 31.4556 4.0553C31.4887 3.52095 31.6215 3.01283 31.8585 2.52858C32.0955 2.04671 32.4557 1.60301 32.9345 1.20463C33.4085 0.808634 34.0413 0.496134 34.8234 0.269512C35.5937 0.0452751 36.2739 -0.0358319 36.8617 0.0142636C37.4471 0.0715155 37.9496 0.217031 38.3714 0.443653C38.7933 0.670276 39.1346 0.958921 39.4 1.3072C39.6631 1.65072 39.8527 1.99423 39.9831 2.34012C40.1229 2.83154 40.1632 3.24661 40.13 3.58297C40.085 3.92409 39.9926 4.22467 39.8432 4.48946C39.6963 4.74948 39.5162 4.98326 39.2981 5.18841C39.0848 5.39595 38.862 5.60826 38.6464 5.82295C38.4852 5.97324 38.3667 6.10682 38.2766 6.24041C38.1889 6.36923 38.1297 6.49566 38.0941 6.62209C38.0586 6.74375 38.0491 6.87973 38.0586 7.02763C38.0775 7.17076 38.1083 7.33774 38.1605 7.51665L35.2263 8.36351C35.1718 8.20845 35.1055 8.00568 35.0367 7.75997C34.9609 7.50711 34.9182 7.23994 34.9064 6.95129C34.8969 6.66742 34.9301 6.37639 35.0178 6.07581C35.1031 5.77285 35.2761 5.49375 35.5345 5.23373C35.6458 5.13116 35.7715 5.02142 35.9184 4.89499C36.0653 4.77095 36.2004 4.64213 36.3308 4.51093C36.4564 4.37257 36.5583 4.22705 36.6223 4.06722C36.6958 3.9074 36.7005 3.74041 36.6555 3.55911C36.4991 3.01761 36.1151 2.83631 35.5036 3.00568C35.1244 3.1178 34.8922 3.33488 34.8139 3.65692C34.7357 3.98135 34.7594 4.31532 34.8922 4.65644L31.5741 5.62018ZM18.195 42.7099L15.6709 42.2328C15.7681 41.8535 15.915 41.4933 16.1141 41.1474C16.3108 40.8087 16.5668 40.5152 16.8867 40.2719C17.2043 40.031 17.593 39.8568 18.041 39.7543C18.4889 39.6493 19.0127 39.6517 19.6076 39.7638C20.2001 39.8735 20.6789 40.0477 21.051 40.2815C21.4231 40.52 21.7098 40.7848 21.9137 41.0734C22.1175 41.3693 22.2502 41.6841 22.3118 42.0014C22.3735 42.3187 22.3877 42.6121 22.3545 42.8817C22.2881 43.249 22.1815 43.5424 22.0416 43.7571C21.8994 43.9766 21.7406 44.1364 21.5534 44.27C21.3662 44.3917 21.1695 44.4847 20.9562 44.5443C20.7428 44.6111 20.5272 44.6803 20.3091 44.7447C20.1574 44.7924 20.0295 44.8425 19.9275 44.9022C19.828 44.9523 19.7427 45.0143 19.6787 45.0906C19.6194 45.1598 19.5673 45.2457 19.5246 45.3435C19.4867 45.4461 19.4535 45.5701 19.4275 45.7037L17.1925 45.2767C17.2091 45.1598 17.2328 45.0024 17.2683 44.8163C17.3015 44.6231 17.3655 44.4298 17.4508 44.2295C17.5361 44.0362 17.657 43.8549 17.8158 43.6832C17.9746 43.5114 18.1808 43.385 18.4368 43.2967C18.5458 43.2633 18.6667 43.2419 18.8065 43.2061C18.9487 43.1703 19.0767 43.1321 19.2094 43.082C19.3374 43.0367 19.4535 42.9747 19.5531 42.8912C19.6502 42.8101 19.7119 42.7051 19.7403 42.5548C19.8162 42.1469 19.6218 41.8988 19.1549 41.8106C18.8658 41.7557 18.6359 41.8225 18.4794 42.0062C18.3183 42.2018 18.2235 42.4356 18.195 42.7099ZM16.9176 45.9709L19.4298 46.4408L18.9843 48.8478L16.472 48.3755L16.9176 45.9709Z" fill="white"/>
</svg>
