<svg width="17" height="12" viewBox="0 0 17 12" fill="none" xmlns="http://www.w3.org/2000/svg">
<path d="M3.64645 11.3536C3.84171 11.5488 4.15829 11.5488 4.35355 11.3536L7.53553 8.17157C7.7308 7.97631 7.7308 7.65973 7.53553 7.46447C7.34027 7.2692 7.02369 7.2692 6.82843 7.46447L4 10.2929L1.17157 7.46447C0.97631 7.2692 0.659728 7.2692 0.464466 7.46447C0.269204 7.65973 0.269204 7.97631 0.464466 8.17157L3.64645 11.3536ZM3.5 1L3.5 11L4.5 11L4.5 1L3.5 1Z" fill="#FF0F89"/>
<path d="M13.3536 0.646446C13.1583 0.451184 12.8417 0.451184 12.6464 0.646446L9.46447 3.82843C9.2692 4.02369 9.2692 4.34027 9.46447 4.53553C9.65973 4.7308 9.97631 4.7308 10.1716 4.53553L13 1.70711L15.8284 4.53553C16.0237 4.7308 16.3403 4.7308 16.5355 4.53553C16.7308 4.34027 16.7308 4.02369 16.5355 3.82843L13.3536 0.646446ZM13.5 11L13.5 1L12.5 1L12.5 11L13.5 11Z" fill="#4E20B1"/>
</svg>
