<svg width="14" height="12" viewBox="0 0 14 12" fill="none" xmlns="http://www.w3.org/2000/svg"><path fill-rule="evenodd" clip-rule="evenodd" d="M10.6735 5.08121L7.76873 1.91343C7.45147 1.56745 7.45556 1.03509 7.7781 0.694032C8.13343 0.3183 8.73238 0.321188 9.08407 0.700329L13.3692 5.31993C13.725 5.70351 13.725 6.29649 13.3692 6.68007L9.08407 11.2997C8.73238 11.6788 8.13343 11.6817 7.7781 11.306C7.45556 10.9649 7.45147 10.4326 7.76873 10.0866L10.6735 6.91879L0.918792 6.91879C0.411358 6.91879 1.44024e-06 6.50743 1.39709e-06 6C1.35393e-06 5.49257 0.411357 5.08121 0.918791 5.08121L10.6735 5.08121Z"/></svg>
